<svg width="32" height="32" viewBox="0 0 32 32" fill="none" xmlns="http://www.w3.org/2000/svg">
<path d="M11.4292 16.0002C11.4292 11.1317 11.4292 6.2631 11.4292 1.3936C11.4292 0.411118 11.8375 0 12.8123 0C14.9547 0 17.0971 0 19.2395 0C20.1352 0 20.5701 0.436872 20.5701 1.33828C20.5701 11.1116 20.5701 20.885 20.5701 30.6583C20.5701 31.5578 20.1333 31.9985 19.2404 31.9985C17.0742 31.9985 14.908 31.9994 12.7417 31.9985C11.8727 31.9985 11.4292 31.5521 11.4292 30.6774C11.4292 25.785 11.4292 20.8926 11.4292 16.0002Z" fill="#B7B7B7"/>
<path d="M22.8545 20.5802C22.8545 17.2235 22.8545 13.8669 22.8545 10.5092C22.8545 9.55824 23.2723 9.1433 24.229 9.1433C26.3829 9.1433 28.5376 9.1433 30.6915 9.1433C31.5433 9.1433 31.9945 9.59067 31.9954 10.4367C31.9954 17.1978 31.9964 23.9598 31.9954 30.7208C31.9954 31.5411 31.5347 31.9971 30.7106 31.998C28.5205 31.9999 26.3304 31.9999 24.1413 31.998C23.3133 31.998 22.8564 31.544 22.8564 30.7217C22.8554 27.3412 22.8564 23.9607 22.8564 20.5792L22.8545 20.5802Z" fill="#B7B7B7"/>
<path d="M0.00127183 25.1416C0.00127183 23.2844 0.000317956 21.4272 0.00127183 19.571C0.00127183 18.7373 0.44959 18.2861 1.27659 18.2861C3.47812 18.2842 5.68061 18.2842 7.88214 18.2861C8.68053 18.2861 9.14029 18.7487 9.14029 19.5528C9.1422 23.2787 9.1422 27.0045 9.14029 30.7303C9.14029 31.5325 8.67862 31.997 7.88214 31.998C5.66821 31.9999 3.45428 32.0008 1.2413 31.998C0.467714 31.997 0.00222569 31.5268 0.00127183 30.7484C-0.00158978 28.8798 0.00127183 27.0102 0.00127183 25.1416Z" fill="#B7B7B7"/>
</svg>
