<svg width="33" height="33" viewBox="0 0 33 33" fill="none" xmlns="http://www.w3.org/2000/svg">
<path d="M32.9966 10.0211C32.9966 12.1164 33.0031 14.2108 32.9947 16.3061C32.9872 17.9914 31.9916 19.3454 30.397 19.8116C30.0014 19.9277 29.5721 19.9858 29.1577 19.9885C26.726 20.0045 24.2934 20.001 21.8607 19.9947C19.6765 19.9894 18.0369 18.4987 18.0219 16.415C17.9919 12.1476 17.9938 7.87935 18.021 3.61106C18.0341 1.55595 19.6231 0.0492353 21.781 0.0224413C24.2596 -0.00792532 26.7392 -0.00703219 29.2177 0.0224413C31.4198 0.0483422 32.9816 1.58811 32.9937 3.70216C33.0059 5.80817 32.9966 7.91418 32.9966 10.0202V10.0211Z" fill="#194AF5" fill-opacity="0.34"/>
<path d="M0.00243219 22.9804C0.00243219 20.8841 -0.00413228 18.7887 0.00430781 16.6924C0.0118101 14.9089 1.13059 13.5114 2.873 13.111C3.19841 13.036 3.54352 13.0083 3.87924 13.0065C6.28936 12.9976 8.69853 12.9994 11.1086 13.0029C13.3546 13.0065 14.978 14.513 14.9873 16.6522C15.0051 20.8779 15.0033 25.1026 14.9873 29.3283C14.9798 31.4496 13.3762 32.9731 11.1499 32.9883C8.71635 33.0044 6.28373 33.0035 3.85017 32.9883C1.6098 32.974 0.0240013 31.4397 0.00149438 29.3006C0.00149438 29.2782 0.00149438 29.2559 0.00149438 29.2335C0.00149438 27.1489 0.00149438 25.0642 0.00149438 22.9795L0.00243219 22.9804Z" fill="#194AF5"/>
<path d="M7.43764 10.407C6.23394 10.407 5.03024 10.4181 3.82746 10.4042C1.71704 10.381 0.159744 8.94064 0.0446639 6.84785C-0.0156604 5.76294 -0.0138043 4.67061 0.0437358 3.5857C0.153248 1.51797 1.67342 0.052553 3.74672 0.024711C6.21074 -0.00777133 8.67661 -0.00869939 11.1406 0.024711C13.2028 0.053481 14.7109 1.49662 14.8343 3.556C14.8993 4.65112 14.8993 5.75738 14.8353 6.85249C14.7137 8.95271 13.162 10.381 11.0478 10.4033C9.84411 10.4153 8.64134 10.4051 7.43764 10.4051V10.407Z" fill="#194AF5"/>
<path d="M25.2244 22.2572C26.4281 22.2572 27.6318 22.248 28.8346 22.2591C30.9487 22.2795 32.5005 23.7069 32.6239 25.8071C32.6879 26.9022 32.6879 28.0085 32.6239 29.1036C32.5014 31.176 30.9775 32.6163 28.8977 32.6395C26.456 32.6674 24.0142 32.6655 21.5734 32.6395C19.4825 32.6182 17.9447 31.1574 17.8333 29.0776C17.7758 27.9927 17.7748 26.9004 17.8333 25.8155C17.9484 23.7227 19.5057 22.2805 21.6142 22.2582C22.8179 22.2452 24.0207 22.2563 25.2244 22.2554V22.2572Z" fill="#194AF5"/>
</svg>
