<svg width="174" height="148" viewBox="0 0 174 148" fill="none" xmlns="http://www.w3.org/2000/svg">
<path d="M146.757 96.1665C144.125 99.9204 141.008 103.503 137.42 106.803C135.242 108.809 132.887 110.716 130.354 112.487C130.036 112.711 129.723 112.929 129.398 113.148C119.057 120.148 105.889 125.023 89.9348 126.186C82.6807 126.717 74.8482 126.481 66.4491 125.33C64.1708 125.012 61.8452 124.634 59.4783 124.179C54.5911 123.247 50.0699 121.984 45.9028 120.443C40.508 118.448 35.7093 115.987 31.4832 113.148C-4.22637 89.1898 1.07989 38.7537 33.5963 21.7371C34.7413 21.1291 35.9218 20.5743 37.1377 20.0608C40.4076 18.6737 43.9196 17.6054 47.6558 16.9148C60.5408 14.5243 71.8616 12.972 81.819 12.1811C83.0172 12.0866 84.1976 12.004 85.3545 11.9273C89.0435 11.6912 92.5318 11.5672 95.8372 11.5495C97.0413 11.5377 98.2218 11.5495 99.3786 11.5613C99.479 11.5613 99.5734 11.5672 99.6679 11.5672C110.233 11.7679 118.798 13.1137 125.78 15.4333C133.695 18.0717 139.586 21.9555 144.06 26.8368C145.358 28.2533 146.533 29.7467 147.601 31.3285C151.993 37.7503 154.655 45.4589 156.626 54.0469C159.583 66.9141 156.26 82.65 146.757 96.1665Z" fill="#E0F0FF"/>
<path d="M129.4 113.149C119.059 120.149 105.891 125.025 89.9369 126.188C82.6829 126.719 74.8504 126.483 66.4512 125.332C64.1729 125.013 61.8473 124.635 59.4805 124.181C54.5933 123.248 50.072 121.985 45.9049 120.445C40.5101 118.45 35.7115 115.988 31.4854 113.149H129.4Z" fill="url(#paint0_linear_1_101)"/>
<path d="M147.604 31.3293V87.839H95.8403V11.5504C97.0444 11.5386 98.2249 11.5504 99.3818 11.5622C99.4821 11.5622 99.5766 11.5681 99.671 11.5681C110.236 11.7687 118.801 13.1145 125.783 15.4341C133.698 18.0725 139.589 21.9563 144.063 26.8376C145.362 28.2542 146.536 29.7475 147.604 31.3293Z" fill="url(#paint1_linear_1_101)"/>
<path d="M144.065 26.8375V84.2975H99.384V11.5621C99.4844 11.5621 99.5788 11.568 99.6732 11.568C110.239 11.7687 118.803 13.1144 125.786 15.4341C133.701 18.0725 139.591 21.9562 144.065 26.8375Z" fill="url(#paint2_linear_1_101)"/>
<path d="M85.3566 11.9279V87.8389H33.5984V21.7378C34.7435 21.1298 35.9239 20.575 37.1398 20.0615C40.4098 18.6744 43.9217 17.6061 47.6579 16.9155C60.5429 14.525 71.8637 12.9727 81.8211 12.1818C83.0193 12.0873 84.1998 12.0047 85.3566 11.9279Z" fill="url(#paint3_linear_1_101)"/>
<path d="M81.8233 12.1837V84.2994H37.1421V20.0634C40.412 18.6764 43.924 17.608 47.6602 16.9175C60.5452 14.527 71.866 12.9747 81.8233 12.1837Z" fill="url(#paint4_linear_1_101)"/>
<path d="M12.787 9.93409L81.4882 2.04583C83.3119 1.83644 84.9658 3.14966 85.1752 4.97333L85.8458 10.8138L10.5242 19.4622L9.85361 13.6217C9.64422 11.7981 10.9574 10.1442 12.7811 9.93476L12.787 9.93409Z" fill="url(#paint5_linear_1_101)"/>
<path d="M10.5303 19.4668L85.8519 10.8184L91.525 60.2274C91.7344 62.0511 90.4212 63.705 88.5975 63.9144L19.8963 71.8027C18.0726 72.0121 16.4187 70.6988 16.2093 68.8752L10.5361 19.4661L10.5303 19.4668Z" fill="url(#paint6_linear_1_101)"/>
<path d="M19.4792 26.8883L18.163 27.0418L17.98 27.6793L17.3071 27.756L18.2456 24.7753L18.8949 24.6985L20.4885 27.39L19.7979 27.4668L19.4792 26.8883ZM19.2136 26.4161L18.6411 25.3832L18.3165 26.5224L19.2136 26.4221V26.4161Z" fill="url(#paint7_linear_1_101)"/>
<path d="M22.6465 24.9335L22.8944 27.1115L22.2982 27.1824L22.2687 26.9227C22.1979 27.0289 22.1034 27.1115 21.9913 27.1765C21.8792 27.2414 21.7611 27.2768 21.6254 27.2945C21.3361 27.3299 21.1 27.2709 20.9171 27.1233C20.7341 26.9758 20.6219 26.7456 20.5806 26.421L20.439 25.1933L21.0705 25.1224L21.2004 26.2616C21.2417 26.6098 21.407 26.7692 21.7021 26.7397C21.8555 26.722 21.9677 26.6571 22.0503 26.5508C22.1329 26.4446 22.1625 26.2911 22.1389 26.0963L22.0149 25.0221L22.6465 24.9513V24.9335Z" fill="url(#paint8_linear_1_101)"/>
<path d="M25.4746 24.6112L25.6812 26.4233C25.7284 26.8246 25.6576 27.1315 25.4687 27.3499C25.2798 27.5683 24.9906 27.6982 24.5892 27.7454C24.3767 27.769 24.1761 27.769 23.9813 27.7395C23.7865 27.71 23.6212 27.651 23.4855 27.5683L23.6862 27.0843C23.7865 27.1492 23.9105 27.1965 24.0521 27.226C24.1997 27.2555 24.3413 27.2614 24.483 27.2437C24.7014 27.2201 24.8548 27.1492 24.9493 27.043C25.0437 26.9309 25.0791 26.7774 25.0555 26.5767L25.0437 26.4823C24.9021 26.683 24.6837 26.801 24.3885 26.8305C24.1879 26.8541 23.999 26.8305 23.8278 26.7597C23.6507 26.6889 23.5032 26.5826 23.391 26.435C23.273 26.2875 23.2081 26.1104 23.1845 25.9038C23.1609 25.6973 23.1845 25.5084 23.2671 25.3372C23.3438 25.166 23.4619 25.0303 23.6212 24.924C23.7747 24.8178 23.9577 24.7529 24.1524 24.7293C24.4653 24.6938 24.7191 24.7706 24.908 24.9594L24.8784 24.682L25.4805 24.6112H25.4746ZM24.8548 26.1104C24.9493 25.9983 24.9906 25.8625 24.9729 25.7032C24.9552 25.5438 24.8843 25.4198 24.7663 25.3372C24.6483 25.2487 24.5066 25.2192 24.3354 25.2369C24.1642 25.2546 24.0344 25.3195 23.94 25.4316C23.8455 25.5438 23.8042 25.6795 23.8219 25.8389C23.8396 25.9983 23.9105 26.1222 24.0285 26.2049C24.1465 26.2934 24.2882 26.3229 24.4594 26.3052C24.6247 26.2875 24.7604 26.2226 24.8548 26.1104Z" fill="url(#paint9_linear_1_101)"/>
<path d="M28.2531 24.2889L28.501 26.4669L27.9049 26.5377L27.8754 26.278C27.8046 26.3842 27.7101 26.4669 27.598 26.5318C27.4858 26.5967 27.3678 26.6321 27.232 26.6498C26.9428 26.6852 26.7067 26.6262 26.5237 26.4787C26.3408 26.3311 26.2286 26.1009 26.1873 25.7763L26.0457 24.5486L26.6772 24.4777L26.8071 25.6169C26.8484 25.9651 27.0136 26.1245 27.3088 26.095C27.4622 26.0773 27.5744 26.0124 27.657 25.9061C27.7396 25.7999 27.7691 25.6464 27.7455 25.4516L27.6216 24.3774L28.2531 24.3066V24.2889Z" fill="url(#paint10_linear_1_101)"/>
<path d="M29.296 26.3451C29.1189 26.3215 28.9714 26.2802 28.8651 26.227L29.0245 25.7489C29.1307 25.8021 29.2547 25.8375 29.3963 25.8611C29.538 25.8847 29.6738 25.8906 29.8095 25.8729C30.0751 25.8434 30.205 25.7607 30.1873 25.6309C30.1814 25.566 30.14 25.5306 30.0633 25.5069C29.9866 25.4892 29.8744 25.4774 29.721 25.4774C29.538 25.4715 29.3904 25.4538 29.2665 25.4361C29.1484 25.4125 29.0363 25.3653 28.9419 25.2827C28.8474 25.2059 28.7884 25.082 28.7707 24.9167C28.753 24.781 28.7825 24.6511 28.8474 24.539C28.9123 24.4209 29.0186 24.3265 29.1662 24.2497C29.3137 24.173 29.4908 24.1199 29.6974 24.0963C29.8508 24.0786 30.0043 24.0786 30.1636 24.0963C30.323 24.114 30.4529 24.1435 30.5591 24.1907L30.3998 24.6629C30.1991 24.5744 29.9807 24.5449 29.7564 24.5744C29.6206 24.5921 29.5203 24.6216 29.4613 24.6688C29.3963 24.716 29.3727 24.7691 29.3786 24.8282C29.3845 24.8931 29.4258 24.9403 29.5026 24.958C29.5793 24.9757 29.6974 24.9875 29.8567 24.9934C30.0397 25.0052 30.1873 25.017 30.3053 25.0407C30.4234 25.0643 30.5296 25.1115 30.6241 25.1882C30.7185 25.2649 30.7716 25.3889 30.7893 25.5483C30.807 25.684 30.7775 25.808 30.7067 25.9201C30.6358 26.0323 30.5296 26.1326 30.3821 26.2034C30.2345 26.2802 30.0515 26.3274 29.839 26.351C29.656 26.3746 29.479 26.3687 29.3019 26.351L29.296 26.3451Z" fill="url(#paint11_linear_1_101)"/>
<path d="M32.6359 25.8841C32.5769 25.9372 32.506 25.9785 32.4175 26.0139C32.329 26.0493 32.2345 26.067 32.1342 26.0788C31.8745 26.1083 31.6679 26.067 31.5085 25.949C31.3492 25.8309 31.2606 25.648 31.2311 25.3883L31.1308 24.4911L30.7943 24.5324L30.7412 24.0484L31.0777 24.0071L31.0186 23.4759L31.6502 23.405L31.7092 23.9363L32.2522 23.8713L32.3053 24.3553L31.7623 24.4203L31.8627 25.3056C31.8745 25.4001 31.904 25.465 31.9571 25.5122C32.0102 25.5594 32.0811 25.5712 32.1637 25.5653C32.264 25.5535 32.3467 25.5181 32.4116 25.4532L32.63 25.8782L32.6359 25.8841Z" fill="url(#paint12_linear_1_101)"/>
<path d="M80.0986 18.8652L38.8169 23.6051L38.8735 24.0977L80.1552 19.3578L80.0986 18.8652Z" fill="url(#paint13_linear_1_101)"/>
<path d="M23.457 30.8032L17.9274 31.4381C17.3023 31.5098 16.8538 32.0747 16.9256 32.6997L17.4737 37.4729C17.5454 38.098 18.1103 38.5465 18.7353 38.4747L24.265 37.8398C24.89 37.768 25.3385 37.2032 25.2668 36.5781L24.7187 31.8049C24.6469 31.1799 24.0821 30.7314 23.457 30.8032Z" fill="url(#paint14_linear_1_101)"/>
<path d="M33.102 29.6989L27.5724 30.3338C26.9474 30.4056 26.4989 30.9704 26.5706 31.5955L27.1187 36.3687C27.1904 36.9937 27.7553 37.4422 28.3803 37.3705L33.91 36.7356C34.535 36.6638 34.9835 36.0989 34.9118 35.4739L34.3637 30.7007C34.2919 30.0756 33.7271 29.6271 33.102 29.6989Z" fill="url(#paint15_linear_1_101)"/>
<path d="M42.7556 28.5884L37.226 29.2233C36.6009 29.2951 36.1524 29.8599 36.2242 30.485L36.7722 35.2582C36.844 35.8832 37.4089 36.3317 38.0339 36.26L43.5636 35.6251C44.1886 35.5533 44.6371 34.9884 44.5653 34.3634L44.0173 29.5902C43.9455 28.9651 43.3807 28.5166 42.7556 28.5884Z" fill="url(#paint16_linear_1_101)"/>
<path d="M52.4009 27.4779L46.8712 28.1128C46.2462 28.1846 45.7977 28.7494 45.8694 29.3745L46.4175 34.1477C46.4893 34.7727 47.0541 35.2212 47.6792 35.1495L53.2088 34.5146C53.8339 34.4428 54.2824 33.8779 54.2106 33.2529L53.6626 28.4797C53.5908 27.8546 53.0259 27.4061 52.4009 27.4779Z" fill="url(#paint17_linear_1_101)"/>
<path d="M62.0542 26.3799L56.5246 27.0148C55.8995 27.0865 55.451 27.6514 55.5228 28.2765L56.0708 33.0497C56.1426 33.6747 56.7075 34.1232 57.3325 34.0514L62.8622 33.4165C63.4872 33.3448 63.9357 32.7799 63.8639 32.1549L63.3159 27.3817C63.2441 26.7566 62.6792 26.3081 62.0542 26.3799Z" fill="url(#paint18_linear_1_101)"/>
<path d="M71.6995 25.2611L66.1698 25.896C65.5448 25.9677 65.0963 26.5326 65.168 27.1576L65.7161 31.9308C65.7879 32.5559 66.3527 33.0044 66.9778 32.9326L72.5074 32.2977C73.1325 32.2259 73.581 31.6611 73.5092 31.036L72.9611 26.2628C72.8894 25.6378 72.3245 25.1893 71.6995 25.2611Z" fill="url(#paint19_linear_1_101)"/>
<path d="M81.3528 24.1547L75.8231 24.7896C75.1981 24.8614 74.7496 25.4263 74.8214 26.0513L75.3694 30.8245C75.4412 31.4495 76.006 31.8981 76.6311 31.8263L82.1607 31.1914C82.7858 31.1196 83.2343 30.5547 83.1625 29.9297L82.6145 25.1565C82.5427 24.5315 81.9778 24.0829 81.3528 24.1547Z" fill="url(#paint20_linear_1_101)"/>
<path d="M24.4175 39.1238L18.8878 39.7588C18.2628 39.8305 17.8143 40.3954 17.886 41.0204L18.4341 45.7936C18.5059 46.4187 19.0707 46.8672 19.6958 46.7954L25.2254 46.1605C25.8505 46.0887 26.299 45.5239 26.2272 44.8988L25.6792 40.1256C25.6074 39.5006 25.0425 39.0521 24.4175 39.1238Z" fill="url(#paint21_linear_1_101)"/>
<path d="M34.0625 38.0113L28.5328 38.6462C27.9078 38.7179 27.4593 39.2828 27.5311 39.9079L28.0791 44.6811C28.1509 45.3061 28.7158 45.7546 29.3408 45.6828L34.8704 45.0479C35.4955 44.9762 35.944 44.4113 35.8722 43.7863L35.3242 39.0131C35.2524 38.388 34.6875 37.9395 34.0625 38.0113Z" fill="url(#paint22_linear_1_101)"/>
<path d="M43.7119 36.907L38.1823 37.5419C37.5572 37.6137 37.1087 38.1785 37.1805 38.8036L37.7285 43.5768C37.8003 44.2018 38.3652 44.6503 38.9902 44.5786L44.5198 43.9437C45.1449 43.8719 45.5934 43.307 45.5216 42.682L44.9736 37.9088C44.9018 37.2837 44.3369 36.8352 43.7119 36.907Z" fill="url(#paint23_linear_1_101)"/>
<path d="M53.3613 35.8007L47.8317 36.4356C47.2066 36.5073 46.7581 37.0722 46.8299 37.6973L47.378 42.4705C47.4497 43.0955 48.0146 43.544 48.6396 43.4722L54.1693 42.8373C54.7943 42.7656 55.2428 42.2007 55.171 41.5757L54.623 36.8025C54.5512 36.1774 53.9864 35.7289 53.3613 35.8007Z" fill="url(#paint24_linear_1_101)"/>
<path d="M63.0188 34.6922L57.4892 35.3271C56.8641 35.3989 56.4156 35.9638 56.4874 36.5888L57.0354 41.362C57.1072 41.9871 57.6721 42.4356 58.2971 42.3638L63.8267 41.7289C64.4518 41.6571 64.9003 41.0923 64.8285 40.4672L64.2805 35.694C64.2087 35.069 63.6438 34.6205 63.0188 34.6922Z" fill="url(#paint25_linear_1_101)"/>
<path d="M72.6724 33.5797L67.1427 34.2146C66.5177 34.2863 66.0692 34.8512 66.1409 35.4762L66.689 40.2494C66.7608 40.8745 67.3256 41.323 67.9507 41.2512L73.4803 40.6163C74.1054 40.5445 74.5539 39.9797 74.4821 39.3546L73.934 34.5814C73.8623 33.9564 73.2974 33.5079 72.6724 33.5797Z" fill="url(#paint26_linear_1_101)"/>
<path d="M82.3174 32.4775L76.7877 33.1124C76.1627 33.1842 75.7142 33.749 75.786 34.3741L76.334 39.1473C76.4058 39.7723 76.9706 40.2208 77.5957 40.1491L83.1253 39.5141C83.7504 39.4424 84.1989 38.8775 84.1271 38.2525L83.5791 33.4793C83.5073 32.8542 82.9424 32.4057 82.3174 32.4775Z" fill="url(#paint27_linear_1_101)"/>
<path d="M25.3738 47.431L19.8441 48.0659C19.2191 48.1377 18.7706 48.7026 18.8423 49.3276L19.3904 54.1008C19.4622 54.7259 20.027 55.1744 20.6521 55.1026L26.1817 54.4677C26.8068 54.3959 27.2553 53.8311 27.1835 53.206L26.6355 48.4328C26.5637 47.8078 25.9988 47.3593 25.3738 47.431Z" fill="url(#paint28_linear_1_101)"/>
<path d="M35.0147 46.3226L29.485 46.9575C28.86 47.0293 28.4115 47.5942 28.4832 48.2192L29.0313 52.9924C29.103 53.6175 29.6679 54.066 30.2929 53.9942L35.8226 53.3593C36.4476 53.2875 36.8961 52.7226 36.8244 52.0976L36.2763 47.3244C36.2046 46.6994 35.6397 46.2509 35.0147 46.3226Z" fill="url(#paint29_linear_1_101)"/>
<path d="M44.6682 45.2163L39.1386 45.8512C38.5135 45.923 38.065 46.4878 38.1368 47.1129L38.6848 51.8861C38.7566 52.5111 39.3215 52.9596 39.9465 52.8879L45.4762 52.2529C46.1012 52.1812 46.5497 51.6163 46.4779 50.9913L45.9299 46.2181C45.8581 45.593 45.2933 45.1445 44.6682 45.2163Z" fill="url(#paint30_linear_1_101)"/>
<path d="M54.3176 44.1058L48.788 44.7407C48.1629 44.8125 47.7144 45.3773 47.7862 46.0024L48.3343 50.7756C48.406 51.4006 48.9709 51.8491 49.5959 51.7774L55.1256 51.1424C55.7506 51.0707 56.1991 50.5058 56.1274 49.8808L55.5793 45.1076C55.5075 44.4825 54.9426 44.034 54.3176 44.1058Z" fill="url(#paint31_linear_1_101)"/>
<path d="M63.9709 42.9994L58.4413 43.6344C57.8163 43.7061 57.3677 44.271 57.4395 44.896L57.9876 49.6692C58.0593 50.2943 58.6242 50.7428 59.2492 50.671L64.7789 50.0361C65.4039 49.9643 65.8524 49.3995 65.7807 48.7744L65.2326 44.0012C65.1608 43.3762 64.596 42.9277 63.9709 42.9994Z" fill="url(#paint32_linear_1_101)"/>
<path d="M73.612 41.8952L68.0824 42.5301C67.4574 42.6019 67.0089 43.1667 67.0806 43.7918L67.6287 48.565C67.7005 49.19 68.2653 49.6385 68.8904 49.5668L74.42 48.9318C75.045 48.8601 75.4935 48.2952 75.4218 47.6702L74.8737 42.897C74.802 42.2719 74.2371 41.8234 73.612 41.8952Z" fill="url(#paint33_linear_1_101)"/>
<path d="M83.2612 40.7826L77.7316 41.4175C77.1065 41.4893 76.658 42.0541 76.7298 42.6792L77.2779 47.4524C77.3496 48.0774 77.9145 48.5259 78.5395 48.4542L84.0692 47.8193C84.6942 47.7475 85.1427 47.1826 85.0709 46.5576L84.5229 41.7844C84.4511 41.1593 83.8863 40.7108 83.2612 40.7826Z" fill="url(#paint34_linear_1_101)"/>
<path d="M26.3078 55.7429L20.7782 56.3778C20.1532 56.4496 19.7047 57.0145 19.7764 57.6395L20.3245 62.4127C20.3963 63.0377 20.9611 63.4862 21.5862 63.4145L27.1158 62.7796C27.7408 62.7078 28.1893 62.1429 28.1176 61.5179L27.5695 56.7447C27.4978 56.1197 26.9329 55.6711 26.3078 55.7429Z" fill="url(#paint35_linear_1_101)"/>
<path d="M35.9529 54.6366L30.4232 55.2715C29.7982 55.3432 29.3497 55.9081 29.4214 56.5332L29.9695 61.3064C30.0413 61.9314 30.6062 62.3799 31.2312 62.3081L36.7608 61.6732C37.3859 61.6015 37.8344 61.0366 37.7626 60.4116L37.2146 55.6384C37.1428 55.0133 36.5779 54.5648 35.9529 54.6366Z" fill="url(#paint36_linear_1_101)"/>
<path d="M45.6064 53.5302L40.0768 54.1651C39.4518 54.2369 39.0032 54.8018 39.075 55.4268L39.6231 60.2C39.6948 60.8251 40.2597 61.2736 40.8847 61.2018L46.4144 60.5669C47.0394 60.4951 47.4879 59.9303 47.4162 59.3052L46.8681 54.532C46.7964 53.907 46.2315 53.4585 45.6064 53.5302Z" fill="url(#paint37_linear_1_101)"/>
<path d="M55.2517 52.4197L49.7221 53.0546C49.097 53.1264 48.6485 53.6913 48.7203 54.3163L49.2683 59.0895C49.3401 59.7146 49.905 60.1631 50.53 60.0913L56.0596 59.4564C56.6847 59.3846 57.1332 58.8198 57.0614 58.1947L56.5134 53.4215C56.4416 52.7965 55.8767 52.348 55.2517 52.4197Z" fill="url(#paint38_linear_1_101)"/>
<path d="M64.905 51.3134L59.3754 51.9483C58.7503 52.0201 58.3018 52.5849 58.3736 53.21L58.9217 57.9832C58.9934 58.6082 59.5583 59.0567 60.1833 58.985L65.713 58.3501C66.338 58.2783 66.7865 57.7134 66.7148 57.0884L66.1667 52.3152C66.0949 51.6901 65.5301 51.2416 64.905 51.3134Z" fill="url(#paint39_linear_1_101)"/>
<path d="M74.5627 50.2029L69.0331 50.8378C68.4081 50.9096 67.9595 51.4744 68.0313 52.0995L68.5794 56.8727C68.6511 57.4977 69.216 57.9462 69.841 57.8745L75.3707 57.2395C75.9957 57.1678 76.4442 56.6029 76.3725 55.9779L75.8244 51.2047C75.7527 50.5796 75.1878 50.1311 74.5627 50.2029Z" fill="url(#paint40_linear_1_101)"/>
<path d="M84.2036 49.0965L78.674 49.7315C78.0489 49.8032 77.6004 50.3681 77.6722 50.9931L78.2202 55.7663C78.292 56.3914 78.8569 56.8399 79.4819 56.7681L85.0115 56.1332C85.6366 56.0614 86.0851 55.4966 86.0133 54.8715L85.4653 50.0983C85.3935 49.4733 84.8286 49.0248 84.2036 49.0965Z" fill="url(#paint41_linear_1_101)"/>
<path d="M23.0028 13.4059C22.3949 13.4767 21.84 13.0399 21.7751 12.432L21.1377 6.88964C21.0668 6.28169 21.5036 5.72686 22.1116 5.66193C22.7195 5.59111 23.2743 6.02788 23.3392 6.63583L23.9767 12.1782C24.0475 12.7861 23.6108 13.341 23.0028 13.4059Z" fill="url(#paint42_linear_1_101)"/>
<path d="M35.3349 11.9939C34.7269 12.0647 34.1721 11.6279 34.1072 11.02L33.4697 5.4776C33.3989 4.86966 33.8356 4.31483 34.4436 4.2499C35.0515 4.17907 35.6064 4.61585 35.6713 5.2238L36.3087 10.7662C36.3796 11.3741 35.9428 11.9289 35.3349 11.9939Z" fill="url(#paint43_linear_1_101)"/>
<path d="M47.6625 10.5756C47.0545 10.6464 46.4997 10.2096 46.4348 9.60168L45.7973 4.05931C45.7265 3.45137 46.1633 2.89654 46.7712 2.83161C47.3792 2.76078 47.934 3.19756 47.9989 3.80551L48.6364 9.34787C48.7072 9.95582 48.2704 10.5106 47.6625 10.5756Z" fill="url(#paint44_linear_1_101)"/>
<path d="M59.9862 9.16354C59.3783 9.23437 58.8234 8.79759 58.7585 8.18964L58.1211 2.64728C58.0502 2.03933 58.487 1.48451 59.095 1.41958C59.7029 1.34875 60.2577 1.78553 60.3226 2.39348L60.9601 7.93584C61.0309 8.54379 60.5942 9.09862 59.9862 9.16354Z" fill="url(#paint45_linear_1_101)"/>
<path d="M72.3141 7.75149C71.7062 7.82232 71.1513 7.38554 71.0864 6.7776L70.4489 1.23523C70.3781 0.627285 70.8149 0.0724572 71.4228 0.00753072C72.0308 -0.0632982 72.5856 0.373481 72.6505 0.981429L73.288 6.52379C73.3588 7.13174 72.922 7.68657 72.3141 7.75149Z" fill="url(#paint46_linear_1_101)"/>
<path d="M130.596 109.414C130.596 109.414 130.596 109.426 130.596 109.455L130.348 112.489C119.865 119.844 106.378 124.991 89.9282 126.189L90.7723 108.434L103.114 104.787L108.143 105.637L130.602 109.414H130.596Z" fill="url(#paint47_linear_1_101)"/>
<path d="M143.24 76.2584C140.637 78.4127 136.724 80.7796 131.695 81.3167L130.597 75.8983V109.418C130.597 109.418 130.597 110.965 125.125 112.086C121.903 112.747 113.74 113.603 105.689 112.871C100.099 112.363 94.5627 111.083 90.7674 108.438C90.7674 102.595 91.9479 70.4268 92.0187 68.4259V68.3255C92.0187 68.3255 89.882 73.012 86.9485 78.0527C86.2521 77.4034 85.3962 76.6007 84.4341 75.6681C82.5571 73.8679 80.2552 71.6073 77.8825 69.1401C77.5401 68.7859 77.2037 68.4318 76.8613 68.0717C80.1077 60.5166 85.048 49.9926 88.0287 48.2691C91.1983 46.4394 99.0957 44.3263 103.983 43.1281C106.403 42.532 108.079 42.166 108.079 42.166L114.891 41.564C114.891 41.564 116.579 42.0303 119.034 42.8212C124.647 44.6333 134.274 48.1629 136.907 51.7752C138.683 54.207 141.133 65.2268 143.24 76.2584Z" fill="url(#paint48_linear_1_101)"/>
<path d="M86.942 78.0549C83.5068 83.9573 78.9856 90.3496 75.5386 90.2787C66.3131 90.0722 48.6826 61.6284 48.6826 61.6284C48.6826 61.6284 44.6158 60.2945 44.2617 59.6334C43.9135 58.9665 44.5096 57.178 44.5096 57.178C44.5096 57.178 39.8113 49.9535 40.9327 49.2865C42.0542 48.6195 45.0349 54.2327 45.0349 54.2327C45.0349 54.2327 47.7028 52.5505 48.7534 52.5505C49.8041 52.5505 52.1886 55.6316 52.6077 57.5263C53.0268 59.4209 73.6144 75.9359 73.6144 75.9359C73.6144 75.9359 74.482 73.7048 75.8278 70.4998C76.1465 69.7384 76.4889 68.9238 76.8548 68.0739C80.8094 72.2528 84.705 75.9654 86.942 78.0549Z" fill="#FFD9D9"/>
<path d="M146.743 96.1725C144.111 99.9265 140.994 103.509 137.405 106.809L131.692 81.3162C136.721 80.779 140.634 78.4122 143.237 76.2578C144.677 83.8129 145.958 91.368 146.743 96.1725Z" fill="#FFD9D9"/>
<path d="M130.59 75.8988V109.419C130.59 109.419 130.59 110.965 125.119 112.087C121.896 112.748 113.733 113.603 105.682 112.872C103.528 103.386 119.771 101.627 117.965 94.1314C116.147 86.5586 124.7 88.9432 125.119 77.3567C125.544 65.7762 127.928 66.0831 127.928 66.0831L130.59 75.8988Z" fill="url(#paint49_linear_1_101)"/>
<g style="mix-blend-mode:overlay" opacity="0.25">
<path d="M95.2358 33.8206C95.4187 34.4993 95.0174 35.2017 94.3327 35.3847C93.6539 35.5677 92.9515 35.1663 92.7686 34.4816C92.5856 33.797 92.987 33.1005 93.6716 32.9175C94.3504 32.7345 95.0528 33.1359 95.2358 33.8206Z" fill="#F8F8F8"/>
</g>
<g style="mix-blend-mode:overlay" opacity="0.25">
<path d="M102.414 31.8907C102.597 32.5695 102.196 33.2719 101.511 33.4548C100.833 33.6378 100.13 33.2365 99.9473 32.5518C99.7643 31.873 100.166 31.1706 100.85 30.9876C101.529 30.8047 102.232 31.206 102.414 31.8907Z" fill="#F8F8F8"/>
</g>
<g style="mix-blend-mode:overlay" opacity="0.25">
<path d="M109.589 29.9609C109.772 30.6396 109.371 31.342 108.686 31.525C108.007 31.708 107.305 31.3066 107.122 30.6219C106.939 29.9372 107.34 29.2408 108.025 29.0578C108.704 28.8748 109.406 29.2762 109.589 29.9609Z" fill="#F8F8F8"/>
</g>
<g style="mix-blend-mode:overlay" opacity="0.25">
<path d="M116.772 28.0372C116.955 28.716 116.554 29.4184 115.869 29.6014C115.19 29.7843 114.488 29.383 114.305 28.6983C114.122 28.0195 114.523 27.3171 115.208 27.1342C115.892 26.9512 116.589 27.3526 116.772 28.0372Z" fill="#F8F8F8"/>
</g>
<g style="mix-blend-mode:overlay" opacity="0.25">
<path d="M123.942 26.1074C124.125 26.7861 123.724 27.4885 123.039 27.6715C122.36 27.8545 121.658 27.4531 121.475 26.7684C121.292 26.0897 121.693 25.3873 122.378 25.2043C123.057 25.0213 123.759 25.4227 123.942 26.1074Z" fill="#F8F8F8"/>
</g>
<g style="mix-blend-mode:overlay" opacity="0.25">
<path d="M131.117 24.1817C131.3 24.8605 130.899 25.5628 130.214 25.7458C129.535 25.9288 128.833 25.5274 128.65 24.8428C128.467 24.164 128.868 23.4616 129.553 23.2786C130.232 23.0956 130.934 23.497 131.117 24.1817Z" fill="#F8F8F8"/>
</g>
<g style="mix-blend-mode:overlay" opacity="0.25">
<path d="M138.3 22.2518C138.483 22.9306 138.082 23.633 137.397 23.8159C136.718 23.9989 136.016 23.5976 135.833 22.9129C135.65 22.2341 136.051 21.5317 136.736 21.3487C137.415 21.1658 138.117 21.5671 138.3 22.2518Z" fill="#F8F8F8"/>
</g>
<g style="mix-blend-mode:overlay" opacity="0.25">
<path d="M145.479 20.3282C145.662 21.007 145.26 21.7094 144.576 21.8923C143.897 22.0753 143.194 21.6739 143.011 20.9893C142.829 20.3105 143.23 19.6081 143.915 19.4251C144.593 19.2421 145.296 19.6435 145.479 20.3282Z" fill="#F8F8F8"/>
</g>
<g style="mix-blend-mode:overlay" opacity="0.25">
<path d="M96.9521 40.2133C97.1351 40.8921 96.7337 41.5945 96.049 41.7774C95.3703 41.9604 94.6679 41.5591 94.4849 40.8744C94.3019 40.1956 94.7033 39.4932 95.388 39.3102C96.0667 39.1273 96.7691 39.5286 96.9521 40.2133Z" fill="#F8F8F8"/>
</g>
<g style="mix-blend-mode:overlay" opacity="0.25">
<path d="M104.131 38.2835C104.314 38.9622 103.912 39.6646 103.228 39.8476C102.549 40.0306 101.847 39.6292 101.664 38.9445C101.481 38.2657 101.882 37.5634 102.567 37.3804C103.245 37.1974 103.948 37.5988 104.131 38.2835Z" fill="#F8F8F8"/>
</g>
<g style="mix-blend-mode:overlay" opacity="0.25">
<path d="M111.305 36.3598C111.488 37.0386 111.087 37.741 110.402 37.924C109.724 38.107 109.021 37.7056 108.838 37.0209C108.655 36.3421 109.057 35.6397 109.741 35.4568C110.42 35.2738 111.122 35.6752 111.305 36.3598Z" fill="#F8F8F8"/>
</g>
<g style="mix-blend-mode:overlay" opacity="0.25">
<path d="M118.488 34.43C118.671 35.1088 118.27 35.8111 117.585 35.9941C116.906 36.1771 116.204 35.7757 116.021 35.091C115.838 34.4064 116.239 33.7099 116.924 33.5269C117.609 33.3439 118.305 33.7453 118.488 34.43Z" fill="#F8F8F8"/>
</g>
<g style="mix-blend-mode:overlay" opacity="0.25">
<path d="M125.659 32.5043C125.842 33.1831 125.44 33.8854 124.756 34.0684C124.077 34.2514 123.374 33.85 123.191 33.1654C123.008 32.4866 123.41 31.7842 124.094 31.6012C124.779 31.4182 125.476 31.8196 125.659 32.5043Z" fill="#F8F8F8"/>
</g>
<g style="mix-blend-mode:overlay" opacity="0.25">
<path d="M132.833 30.5744C133.016 31.2532 132.615 31.9556 131.93 32.1386C131.252 32.3215 130.549 31.9202 130.366 31.2355C130.183 30.5567 130.585 29.8543 131.269 29.6714C131.948 29.4884 132.65 29.8897 132.833 30.5744Z" fill="#F8F8F8"/>
</g>
<g style="mix-blend-mode:overlay" opacity="0.25">
<path d="M140.016 28.6508C140.199 29.3296 139.798 30.032 139.113 30.2149C138.434 30.3979 137.732 29.9965 137.549 29.3119C137.366 28.6331 137.767 27.9307 138.452 27.7477C139.131 27.5647 139.833 27.9661 140.016 28.6508Z" fill="#F8F8F8"/>
</g>
<g style="mix-blend-mode:overlay" opacity="0.25">
<path d="M147.195 26.7209C147.378 27.3997 146.977 28.1021 146.292 28.2851C145.613 28.468 144.911 28.0667 144.728 27.382C144.545 26.7032 144.946 26.0008 145.631 25.8179C146.31 25.6349 147.012 26.0363 147.195 26.7209Z" fill="#F8F8F8"/>
</g>
<g style="mix-blend-mode:overlay" opacity="0.25">
<path d="M98.673 46.6129C98.856 47.2917 98.4547 47.9941 97.77 48.177C97.0912 48.36 96.3888 47.9587 96.2058 47.274C96.0228 46.5952 96.4242 45.8928 97.1089 45.7098C97.7877 45.5269 98.4901 45.9282 98.673 46.6129Z" fill="#F8F8F8"/>
</g>
<g style="mix-blend-mode:overlay" opacity="0.25">
<path d="M105.852 44.6914C106.035 45.3702 105.633 46.0725 104.949 46.2555C104.27 46.4385 103.568 46.0371 103.385 45.3524C103.202 44.6737 103.603 43.9713 104.288 43.7883C104.966 43.6053 105.669 44.0067 105.852 44.6914Z" fill="#F8F8F8"/>
</g>
<g style="mix-blend-mode:overlay" opacity="0.25">
<path d="M113.026 42.7594C113.209 43.4382 112.808 44.1406 112.123 44.3236C111.444 44.5065 110.742 44.1052 110.559 43.4205C110.376 42.7417 110.777 42.0393 111.462 41.8564C112.141 41.6734 112.843 42.0748 113.026 42.7594Z" fill="#F8F8F8"/>
</g>
<g style="mix-blend-mode:overlay" opacity="0.25">
<path d="M120.209 40.8337C120.392 41.5125 119.991 42.2149 119.306 42.3979C118.627 42.5808 117.925 42.1795 117.742 41.4948C117.559 40.816 117.96 40.1136 118.645 39.9307C119.324 39.7477 120.026 40.1491 120.209 40.8337Z" fill="#F8F8F8"/>
</g>
<g style="mix-blend-mode:overlay" opacity="0.25">
<path d="M127.38 38.9039C127.563 39.5827 127.161 40.285 126.477 40.468C125.798 40.651 125.095 40.2496 124.912 39.5649C124.729 38.8862 125.131 38.1838 125.815 38.0008C126.494 37.8178 127.197 38.2192 127.38 38.9039Z" fill="#F8F8F8"/>
</g>
<g style="mix-blend-mode:overlay" opacity="0.25">
<path d="M134.554 36.9803C134.737 37.659 134.336 38.3614 133.651 38.5444C132.973 38.7274 132.27 38.326 132.087 37.6413C131.904 36.9626 132.306 36.2602 132.99 36.0772C133.669 35.8942 134.371 36.2956 134.554 36.9803Z" fill="#F8F8F8"/>
</g>
<g style="mix-blend-mode:overlay" opacity="0.25">
<path d="M141.737 35.0504C141.92 35.7292 141.519 36.4316 140.834 36.6145C140.155 36.7975 139.453 36.3961 139.27 35.7115C139.087 35.0268 139.488 34.3303 140.173 34.1473C140.858 33.9643 141.554 34.3657 141.737 35.0504Z" fill="#F8F8F8"/>
</g>
<g style="mix-blend-mode:overlay" opacity="0.25">
<path d="M148.916 33.1205C149.099 33.7993 148.698 34.5017 148.013 34.6847C147.334 34.8676 146.632 34.4663 146.449 33.7816C146.266 33.1028 146.667 32.4004 147.352 32.2175C148.036 32.0345 148.733 32.4359 148.916 33.1205Z" fill="#F8F8F8"/>
</g>
<g style="mix-blend-mode:overlay" opacity="0.25">
<path d="M100.394 53.0189C100.577 53.6977 100.176 54.4 99.4912 54.583C98.8124 54.766 98.11 54.3646 97.927 53.68C97.744 53.0012 98.1454 52.2988 98.8301 52.1158C99.5089 51.9328 100.211 52.3342 100.394 53.0189Z" fill="#F8F8F8"/>
</g>
<g style="mix-blend-mode:overlay" opacity="0.25">
<path d="M107.573 51.089C107.756 51.7678 107.355 52.4702 106.67 52.6532C105.991 52.8361 105.289 52.4348 105.106 51.7501C104.923 51.0713 105.324 50.3689 106.009 50.186C106.688 50.003 107.39 50.4043 107.573 51.089Z" fill="#F8F8F8"/>
</g>
<g style="mix-blend-mode:overlay" opacity="0.25">
<path d="M114.747 49.1654C114.93 49.8442 114.529 50.5466 113.844 50.7296C113.166 50.9125 112.463 50.5112 112.28 49.8265C112.097 49.1477 112.499 48.4453 113.183 48.2623C113.862 48.0794 114.565 48.4807 114.747 49.1654Z" fill="#F8F8F8"/>
</g>
<g style="mix-blend-mode:overlay" opacity="0.25">
<path d="M121.922 47.2356C122.105 47.9143 121.704 48.6167 121.019 48.7997C120.34 48.9827 119.638 48.5813 119.455 47.8966C119.272 47.2178 119.673 46.5155 120.358 46.3325C121.037 46.1495 121.739 46.5509 121.922 47.2356Z" fill="#F8F8F8"/>
</g>
<g style="mix-blend-mode:overlay" opacity="0.25">
<path d="M129.097 45.3057C129.28 45.9845 128.878 46.6868 128.194 46.8698C127.515 47.0528 126.812 46.6514 126.629 45.9668C126.446 45.288 126.848 44.5856 127.532 44.4026C128.211 44.2196 128.914 44.621 129.097 45.3057Z" fill="#F8F8F8"/>
</g>
<g style="mix-blend-mode:overlay" opacity="0.25">
<path d="M136.271 43.38C136.454 44.0588 136.053 44.7612 135.368 44.9441C134.69 45.1271 133.987 44.7257 133.804 44.0411C133.621 43.3623 134.023 42.6599 134.707 42.4769C135.386 42.294 136.088 42.6953 136.271 43.38Z" fill="#F8F8F8"/>
</g>
<g style="mix-blend-mode:overlay" opacity="0.25">
<path d="M143.45 41.4501C143.633 42.1289 143.232 42.8313 142.547 43.0143C141.868 43.1972 141.166 42.7959 140.983 42.1112C140.8 41.4324 141.201 40.73 141.886 40.5471C142.565 40.3641 143.267 40.7654 143.45 41.4501Z" fill="#F8F8F8"/>
</g>
<g style="mix-blend-mode:overlay" opacity="0.25">
<path d="M150.629 39.5265C150.812 40.2053 150.41 40.9077 149.726 41.0907C149.047 41.2736 148.345 40.8723 148.162 40.1876C147.979 39.5029 148.38 38.8064 149.065 38.6234C149.743 38.4405 150.446 38.8418 150.629 39.5265Z" fill="#F8F8F8"/>
</g>
<g style="mix-blend-mode:overlay" opacity="0.25">
<path d="M102.107 59.416C102.29 60.0948 101.888 60.7972 101.204 60.9802C100.525 61.1631 99.8224 60.7618 99.6394 60.0771C99.4564 59.3983 99.8578 58.6959 100.542 58.513C101.221 58.33 101.924 58.7314 102.107 59.416Z" fill="#F8F8F8"/>
</g>
<g style="mix-blend-mode:overlay" opacity="0.25">
<path d="M109.285 57.4862C109.468 58.165 109.067 58.8673 108.382 59.0503C107.703 59.2333 107.001 58.8319 106.818 58.1472C106.635 57.4685 107.037 56.7661 107.721 56.5831C108.4 56.4001 109.102 56.8015 109.285 57.4862Z" fill="#F8F8F8"/>
</g>
<g style="mix-blend-mode:overlay" opacity="0.25">
<path d="M116.46 55.5626C116.643 56.2413 116.242 56.9437 115.557 57.1267C114.878 57.3097 114.176 56.9083 113.993 56.2236C113.81 55.5449 114.211 54.8425 114.896 54.6595C115.575 54.4765 116.277 54.8779 116.46 55.5626Z" fill="#F8F8F8"/>
</g>
<g style="mix-blend-mode:overlay" opacity="0.25">
<path d="M123.643 53.6327C123.826 54.3115 123.424 55.0139 122.74 55.1968C122.061 55.3798 121.359 54.9785 121.176 54.2938C120.993 53.615 121.394 52.9126 122.079 52.7296C122.757 52.5467 123.46 52.948 123.643 53.6327Z" fill="#F8F8F8"/>
</g>
<g style="mix-blend-mode:overlay" opacity="0.25">
<path d="M130.813 51.707C130.996 52.3858 130.595 53.0882 129.91 53.2711C129.231 53.4541 128.529 53.0528 128.346 52.3681C128.163 51.6893 128.564 50.9869 129.249 50.8039C129.928 50.621 130.63 51.0223 130.813 51.707Z" fill="#F8F8F8"/>
</g>
<g style="mix-blend-mode:overlay" opacity="0.25">
<path d="M137.988 49.7772C138.171 50.4559 137.77 51.1583 137.085 51.3413C136.406 51.5243 135.704 51.1229 135.521 50.4382C135.338 49.7594 135.739 49.0571 136.424 48.8741C137.103 48.6911 137.805 49.0925 137.988 49.7772Z" fill="#F8F8F8"/>
</g>
<g style="mix-blend-mode:overlay" opacity="0.25">
<path d="M145.163 47.8535C145.346 48.5323 144.944 49.2347 144.259 49.4177C143.581 49.6006 142.878 49.1993 142.695 48.5146C142.512 47.8358 142.914 47.1334 143.598 46.9505C144.277 46.7675 144.98 47.1688 145.163 47.8535Z" fill="#F8F8F8"/>
</g>
<g style="mix-blend-mode:overlay" opacity="0.25">
<path d="M152.341 45.9237C152.524 46.6024 152.123 47.3048 151.438 47.4878C150.759 47.6708 150.057 47.2694 149.874 46.5847C149.691 45.906 150.092 45.2036 150.777 45.0206C151.456 44.8376 152.158 45.239 152.341 45.9237Z" fill="#F8F8F8"/>
</g>
<g style="mix-blend-mode:overlay" opacity="0.25">
<path d="M61.2646 105.738C61.4476 106.417 61.0462 107.12 60.3615 107.303C59.6827 107.486 58.9804 107.084 58.7974 106.399C58.6144 105.721 59.0158 105.018 59.7004 104.835C60.3792 104.652 61.0816 105.054 61.2646 105.738Z" fill="#F8F8F8"/>
</g>
<g style="mix-blend-mode:overlay" opacity="0.25">
<path d="M68.4433 103.809C68.6263 104.487 68.2249 105.19 67.5402 105.373C66.8614 105.556 66.1591 105.154 65.9761 104.47C65.7931 103.791 66.1945 103.088 66.8792 102.905C67.5579 102.723 68.2603 103.124 68.4433 103.809Z" fill="#F8F8F8"/>
</g>
<g style="mix-blend-mode:overlay" opacity="0.25">
<path d="M75.6179 101.885C75.8008 102.564 75.3995 103.266 74.7148 103.449C74.036 103.632 73.3336 103.231 73.1506 102.546C72.9677 101.867 73.369 101.165 74.0537 100.982C74.7325 100.799 75.4349 101.2 75.6179 101.885Z" fill="#F8F8F8"/>
</g>
<g style="mix-blend-mode:overlay" opacity="0.25">
<path d="M82.8007 99.9551C82.9837 100.634 82.5823 101.336 81.8977 101.519C81.2189 101.702 80.5165 101.301 80.3335 100.616C80.1505 99.9374 80.5519 99.235 81.2366 99.052C81.9154 98.869 82.6178 99.2704 82.8007 99.9551Z" fill="#F8F8F8"/>
</g>
<g style="mix-blend-mode:overlay" opacity="0.25">
<path d="M89.9711 98.0294C90.1541 98.7082 89.7528 99.4105 89.0681 99.5935C88.3893 99.7765 87.6869 99.3751 87.5039 98.6904C87.3209 98.0117 87.7223 97.3093 88.407 97.1263C89.0858 96.9433 89.7882 97.3447 89.9711 98.0294Z" fill="#F8F8F8"/>
</g>
<g style="mix-blend-mode:overlay" opacity="0.25">
<path d="M97.1459 96.0995C97.3289 96.7783 96.9275 97.4807 96.2429 97.6637C95.5641 97.8466 94.8617 97.4453 94.6787 96.7606C94.4957 96.0818 94.8971 95.3794 95.5818 95.1965C96.2606 95.0135 96.963 95.4148 97.1459 96.0995Z" fill="#F8F8F8"/>
</g>
<g style="mix-blend-mode:overlay" opacity="0.25">
<path d="M104.329 94.1697C104.512 94.8484 104.11 95.5508 103.426 95.7338C102.747 95.9168 102.045 95.5154 101.862 94.8307C101.679 94.152 102.08 93.4496 102.765 93.2666C103.443 93.0836 104.146 93.485 104.329 94.1697Z" fill="#F8F8F8"/>
</g>
<g style="mix-blend-mode:overlay" opacity="0.25">
<path d="M111.507 92.246C111.69 92.9248 111.289 93.6272 110.604 93.8102C109.926 93.9931 109.223 93.5918 109.04 92.9071C108.857 92.2283 109.259 91.5259 109.943 91.343C110.622 91.16 111.325 91.5614 111.507 92.246Z" fill="#F8F8F8"/>
</g>
<g style="mix-blend-mode:overlay" opacity="0.25">
<path d="M62.9809 112.133C63.1639 112.812 62.7625 113.515 62.0778 113.698C61.3991 113.88 60.6967 113.479 60.5137 112.794C60.3307 112.116 60.7321 111.413 61.4168 111.23C62.0955 111.047 62.7979 111.449 62.9809 112.133Z" fill="#F8F8F8"/>
</g>
<g style="mix-blend-mode:overlay" opacity="0.25">
<path d="M70.1554 110.212C70.3384 110.891 69.9371 111.593 69.2524 111.776C68.5736 111.959 67.8712 111.558 67.6882 110.873C67.5053 110.194 67.9066 109.492 68.5913 109.309C69.2701 109.126 69.9725 109.527 70.1554 110.212Z" fill="#F8F8F8"/>
</g>
<g style="mix-blend-mode:overlay" opacity="0.25">
<path d="M77.33 108.28C77.513 108.959 77.1116 109.661 76.427 109.844C75.7482 110.027 75.0458 109.626 74.8628 108.941C74.6798 108.262 75.0812 107.56 75.7659 107.377C76.4447 107.194 77.1471 107.595 77.33 108.28Z" fill="#F8F8F8"/>
</g>
<g style="mix-blend-mode:overlay" opacity="0.25">
<path d="M84.5087 106.35C84.6917 107.029 84.2903 107.731 83.6057 107.914C82.9269 108.097 82.2245 107.696 82.0415 107.011C81.8585 106.332 82.2599 105.63 82.9446 105.447C83.6234 105.264 84.3258 105.665 84.5087 106.35Z" fill="#F8F8F8"/>
</g>
<g style="mix-blend-mode:overlay" opacity="0.25">
<path d="M91.6833 104.424C91.8663 105.103 91.4649 105.805 90.7802 105.988C90.1014 106.171 89.3991 105.77 89.2161 105.085C89.0331 104.407 89.4345 103.704 90.1191 103.521C90.7979 103.338 91.5003 103.74 91.6833 104.424Z" fill="#F8F8F8"/>
</g>
<g style="mix-blend-mode:overlay" opacity="0.25">
<path d="M98.8581 102.494C99.0411 103.173 98.6397 103.876 97.955 104.059C97.2762 104.242 96.5739 103.84 96.3909 103.156C96.2079 102.477 96.6093 101.774 97.294 101.591C97.9727 101.408 98.6751 101.81 98.8581 102.494Z" fill="#F8F8F8"/>
</g>
<g style="mix-blend-mode:overlay" opacity="0.25">
<path d="M106.037 100.571C106.22 101.25 105.818 101.952 105.134 102.135C104.455 102.318 103.753 101.917 103.57 101.232C103.387 100.553 103.788 99.8507 104.473 99.6678C105.151 99.4848 105.854 99.8862 106.037 100.571Z" fill="#F8F8F8"/>
</g>
<g style="mix-blend-mode:overlay" opacity="0.25">
<path d="M113.216 98.641C113.398 99.3198 112.997 100.022 112.312 100.205C111.634 100.388 110.931 99.9867 110.748 99.302C110.565 98.6233 110.967 97.9209 111.651 97.7379C112.33 97.5549 113.033 97.9563 113.216 98.641Z" fill="#F8F8F8"/>
</g>
<g style="mix-blend-mode:overlay" opacity="0.25">
<path d="M64.7065 118.533C64.8895 119.212 64.4881 119.914 63.8034 120.097C63.1246 120.28 62.4222 119.879 62.2393 119.194C62.0563 118.515 62.4577 117.813 63.1423 117.63C63.8211 117.447 64.5235 117.848 64.7065 118.533Z" fill="#F8F8F8"/>
</g>
<g style="mix-blend-mode:overlay" opacity="0.25">
<path d="M71.8852 116.609C72.0682 117.288 71.6668 117.991 70.9821 118.174C70.3033 118.357 69.601 117.955 69.418 117.271C69.235 116.592 69.6364 115.889 70.3211 115.706C70.9998 115.523 71.7022 115.925 71.8852 116.609Z" fill="#F8F8F8"/>
</g>
<g style="mix-blend-mode:overlay" opacity="0.25">
<path d="M79.0597 114.68C79.2427 115.358 78.8414 116.061 78.1567 116.244C77.4779 116.427 76.7755 116.025 76.5925 115.341C76.4096 114.662 76.8109 113.96 77.4956 113.777C78.1744 113.594 78.8768 113.995 79.0597 114.68Z" fill="#F8F8F8"/>
</g>
<g style="mix-blend-mode:overlay" opacity="0.25">
<path d="M86.2426 112.756C86.4256 113.435 86.0242 114.137 85.3395 114.32C84.6608 114.503 83.9584 114.102 83.7754 113.417C83.5924 112.738 83.9938 112.036 84.6785 111.853C85.3572 111.67 86.0596 112.071 86.2426 112.756Z" fill="#F8F8F8"/>
</g>
<g style="mix-blend-mode:overlay" opacity="0.25">
<path d="M93.4089 110.826C93.5918 111.505 93.1905 112.207 92.5058 112.39C91.827 112.573 91.1246 112.172 90.9417 111.487C90.7587 110.808 91.1601 110.106 91.8447 109.923C92.5235 109.74 93.2259 110.141 93.4089 110.826Z" fill="#F8F8F8"/>
</g>
<g style="mix-blend-mode:overlay" opacity="0.25">
<path d="M100.584 108.9C100.767 109.579 100.365 110.282 99.6806 110.465C99.0018 110.648 98.2994 110.246 98.1165 109.562C97.9335 108.883 98.3349 108.18 99.0195 107.997C99.6983 107.814 100.401 108.216 100.584 108.9Z" fill="#F8F8F8"/>
</g>
<g style="mix-blend-mode:overlay" opacity="0.25">
<path d="M107.762 106.971C107.945 107.649 107.544 108.352 106.859 108.535C106.181 108.718 105.478 108.316 105.295 107.632C105.112 106.953 105.514 106.25 106.198 106.068C106.877 105.885 107.579 106.286 107.762 106.971Z" fill="#F8F8F8"/>
</g>
<g style="mix-blend-mode:overlay" opacity="0.25">
<path d="M114.941 105.047C115.124 105.726 114.723 106.428 114.038 106.611C113.359 106.794 112.657 106.393 112.474 105.708C112.291 105.029 112.692 104.327 113.377 104.144C114.056 103.961 114.758 104.362 114.941 105.047Z" fill="#F8F8F8"/>
</g>
<g style="mix-blend-mode:overlay" opacity="0.25">
<path d="M66.4142 124.941C66.5972 125.62 66.1958 126.322 65.5112 126.505C64.8324 126.688 64.13 126.287 63.947 125.602C63.7641 124.917 64.1654 124.221 64.8501 124.038C65.5289 123.855 66.2313 124.256 66.4142 124.941Z" fill="#F8F8F8"/>
</g>
<g style="mix-blend-mode:overlay" opacity="0.25">
<path d="M73.5929 123.011C73.7759 123.69 73.3746 124.392 72.6899 124.575C72.0111 124.758 71.3087 124.357 71.1257 123.672C70.9428 122.993 71.3441 122.291 72.0288 122.108C72.7076 121.925 73.41 122.326 73.5929 123.011Z" fill="#F8F8F8"/>
</g>
<g style="mix-blend-mode:overlay" opacity="0.25">
<path d="M80.7675 121.087C80.9505 121.766 80.5491 122.469 79.8644 122.652C79.1857 122.835 78.4833 122.433 78.3003 121.748C78.1173 121.07 78.5187 120.367 79.2034 120.184C79.8822 120.001 80.5845 120.403 80.7675 121.087Z" fill="#F8F8F8"/>
</g>
<g style="mix-blend-mode:overlay" opacity="0.25">
<path d="M87.9504 119.158C88.1333 119.836 87.732 120.539 87.0473 120.722C86.3685 120.905 85.6661 120.503 85.4832 119.819C85.3002 119.14 85.7016 118.437 86.3862 118.254C87.065 118.072 87.7674 118.473 87.9504 119.158Z" fill="#F8F8F8"/>
</g>
<g style="mix-blend-mode:overlay" opacity="0.25">
<path d="M95.1208 117.232C95.3038 117.911 94.9024 118.613 94.2177 118.796C93.5389 118.979 92.8366 118.578 92.6536 117.893C92.4706 117.214 92.872 116.512 93.5566 116.329C94.2354 116.146 94.9378 116.547 95.1208 117.232Z" fill="#F8F8F8"/>
</g>
<g style="mix-blend-mode:overlay" opacity="0.25">
<path d="M102.296 115.302C102.479 115.981 102.077 116.683 101.393 116.866C100.714 117.049 100.011 116.648 99.8284 115.963C99.6454 115.284 100.047 114.582 100.731 114.399C101.41 114.216 102.113 114.617 102.296 115.302Z" fill="#F8F8F8"/>
</g>
<g style="mix-blend-mode:overlay" opacity="0.25">
<path d="M109.478 113.372C109.661 114.051 109.26 114.753 108.575 114.936C107.897 115.119 107.194 114.718 107.011 114.033C106.828 113.354 107.23 112.652 107.914 112.469C108.593 112.286 109.295 112.687 109.478 113.372Z" fill="#F8F8F8"/>
</g>
<g style="mix-blend-mode:overlay" opacity="0.25">
<path d="M116.649 111.449C116.832 112.127 116.43 112.83 115.746 113.013C115.067 113.196 114.365 112.794 114.182 112.11C113.999 111.431 114.4 110.728 115.085 110.545C115.763 110.362 116.466 110.764 116.649 111.449Z" fill="#F8F8F8"/>
</g>
<g style="mix-blend-mode:overlay" opacity="0.25">
<path d="M68.1354 131.332C68.3184 132.01 67.917 132.713 67.2324 132.896C66.5536 133.079 65.8512 132.677 65.6682 131.993C65.4853 131.314 65.8866 130.612 66.5713 130.429C67.2501 130.246 67.9525 130.647 68.1354 131.332Z" fill="#F8F8F8"/>
</g>
<g style="mix-blend-mode:overlay" opacity="0.25">
<path d="M75.3141 129.41C75.4971 130.089 75.0958 130.791 74.4111 130.974C73.7323 131.157 73.0299 130.756 72.8469 130.071C72.664 129.387 73.0653 128.69 73.75 128.507C74.4288 128.324 75.1312 128.725 75.3141 129.41Z" fill="#F8F8F8"/>
</g>
<g style="mix-blend-mode:overlay" opacity="0.25">
<path d="M82.4887 127.478C82.6717 128.157 82.2703 128.859 81.5856 129.042C80.9069 129.225 80.2045 128.824 80.0215 128.139C79.8385 127.455 80.2399 126.758 80.9246 126.575C81.6092 126.392 82.3057 126.794 82.4887 127.478Z" fill="#F8F8F8"/>
</g>
<g style="mix-blend-mode:overlay" opacity="0.25">
<path d="M89.6716 125.548C89.8545 126.227 89.4532 126.93 88.7685 127.112C88.0897 127.295 87.3873 126.894 87.2044 126.209C87.0214 125.531 87.4227 124.828 88.1074 124.645C88.7921 124.462 89.4886 124.864 89.6716 125.548Z" fill="#F8F8F8"/>
</g>
<g style="mix-blend-mode:overlay" opacity="0.25">
<path d="M96.842 123.623C97.0249 124.301 96.6236 125.004 95.9389 125.187C95.2601 125.37 94.5577 124.968 94.3748 124.284C94.1918 123.605 94.5932 122.903 95.2778 122.72C95.9566 122.537 96.659 122.938 96.842 123.623Z" fill="#F8F8F8"/>
</g>
<g style="mix-blend-mode:overlay" opacity="0.25">
<path d="M104.017 121.693C104.2 122.372 103.798 123.074 103.114 123.257C102.435 123.44 101.733 123.039 101.55 122.354C101.367 121.675 101.768 120.973 102.453 120.79C103.131 120.607 103.834 121.008 104.017 121.693Z" fill="#F8F8F8"/>
</g>
<g style="mix-blend-mode:overlay" opacity="0.25">
<path d="M111.2 119.769C111.383 120.448 110.981 121.15 110.297 121.333C109.618 121.516 108.915 121.115 108.732 120.43C108.549 119.751 108.951 119.049 109.636 118.866C110.314 118.683 111.017 119.084 111.2 119.769Z" fill="#F8F8F8"/>
</g>
<g style="mix-blend-mode:overlay" opacity="0.25">
<path d="M118.378 117.839C118.561 118.518 118.16 119.22 117.475 119.403C116.797 119.586 116.094 119.185 115.911 118.5C115.728 117.822 116.13 117.119 116.814 116.936C117.493 116.753 118.195 117.155 118.378 117.839Z" fill="#F8F8F8"/>
</g>
<g style="mix-blend-mode:overlay" opacity="0.25">
<path d="M115.909 74.2328C116.092 74.9115 115.69 75.6139 115.006 75.7969C114.327 75.9799 113.624 75.5785 113.441 74.8938C113.258 74.2151 113.66 73.5127 114.344 73.3297C115.023 73.1467 115.726 73.5481 115.909 74.2328Z" fill="#F8F8F8"/>
</g>
<g style="mix-blend-mode:overlay" opacity="0.25">
<path d="M123.087 72.3112C123.27 72.99 122.869 73.6924 122.184 73.8754C121.505 74.0583 120.803 73.657 120.62 72.9723C120.437 72.2935 120.839 71.5911 121.523 71.4082C122.202 71.2252 122.904 71.6265 123.087 72.3112Z" fill="#F8F8F8"/>
</g>
<g style="mix-blend-mode:overlay" opacity="0.25">
<path d="M130.262 70.3793C130.445 71.0581 130.044 71.7605 129.359 71.9434C128.68 72.1264 127.978 71.725 127.795 71.0404C127.612 70.3616 128.013 69.6592 128.698 69.4762C129.377 69.2933 130.079 69.6946 130.262 70.3793Z" fill="#F8F8F8"/>
</g>
<g style="mix-blend-mode:overlay" opacity="0.25">
<path d="M137.445 68.4536C137.628 69.1324 137.226 69.8347 136.542 70.0177C135.863 70.2007 135.161 69.7993 134.978 69.1147C134.795 68.4359 135.196 67.7335 135.881 67.5505C136.559 67.3675 137.262 67.7689 137.445 68.4536Z" fill="#F8F8F8"/>
</g>
<g style="mix-blend-mode:overlay" opacity="0.25">
<path d="M144.615 66.5237C144.798 67.2025 144.397 67.9049 143.712 68.0879C143.033 68.2709 142.331 67.8695 142.148 67.1848C141.965 66.506 142.366 65.8036 143.051 65.6207C143.73 65.4377 144.432 65.8391 144.615 66.5237Z" fill="#F8F8F8"/>
</g>
<g style="mix-blend-mode:overlay" opacity="0.25">
<path d="M151.786 64.5939C151.969 65.2727 151.567 65.975 150.883 66.158C150.204 66.341 149.502 65.9396 149.319 65.255C149.136 64.5762 149.537 63.8738 150.222 63.6908C150.9 63.5078 151.603 63.9092 151.786 64.5939Z" fill="#F8F8F8"/>
</g>
<g style="mix-blend-mode:overlay" opacity="0.25">
<path d="M158.965 62.6702C159.148 63.349 158.746 64.0514 158.061 64.2344C157.383 64.4174 156.68 64.016 156.497 63.3313C156.314 62.6525 156.716 61.9502 157.4 61.7672C158.079 61.5842 158.782 61.9856 158.965 62.6702Z" fill="#F8F8F8"/>
</g>
<g style="mix-blend-mode:overlay" opacity="0.25">
<path d="M166.143 60.7404C166.326 61.4192 165.925 62.1216 165.24 62.3045C164.561 62.4875 163.859 62.0861 163.676 61.4015C163.493 60.7227 163.894 60.0203 164.579 59.8373C165.258 59.6543 165.96 60.0557 166.143 60.7404Z" fill="#F8F8F8"/>
</g>
<g style="mix-blend-mode:overlay" opacity="0.25">
<path d="M117.621 80.6365C117.804 81.3153 117.403 82.0177 116.718 82.2007C116.039 82.3837 115.337 81.9823 115.154 81.2976C114.971 80.6188 115.372 79.9164 116.057 79.7335C116.736 79.5505 117.438 79.9519 117.621 80.6365Z" fill="#F8F8F8"/>
</g>
<g style="mix-blend-mode:overlay" opacity="0.25">
<path d="M124.8 78.7067C124.983 79.3854 124.581 80.0878 123.897 80.2708C123.218 80.4538 122.516 80.0524 122.333 79.3677C122.15 78.689 122.551 77.9866 123.236 77.8036C123.914 77.6206 124.617 78.022 124.8 78.7067Z" fill="#F8F8F8"/>
</g>
<g style="mix-blend-mode:overlay" opacity="0.25">
<path d="M131.974 76.7768C132.157 77.4556 131.756 78.158 131.071 78.341C130.392 78.5239 129.69 78.1226 129.507 77.4379C129.324 76.7591 129.725 76.0567 130.41 75.8737C131.089 75.6908 131.791 76.0921 131.974 76.7768Z" fill="#F8F8F8"/>
</g>
<g style="mix-blend-mode:overlay" opacity="0.25">
<path d="M139.157 74.8532C139.34 75.532 138.939 76.2344 138.254 76.4173C137.575 76.6003 136.873 76.1989 136.69 75.5143C136.507 74.8355 136.908 74.1331 137.593 73.9501C138.272 73.7672 138.974 74.1685 139.157 74.8532Z" fill="#F8F8F8"/>
</g>
<g style="mix-blend-mode:overlay" opacity="0.25">
<path d="M146.328 72.9233C146.511 73.6021 146.109 74.3045 145.425 74.4875C144.746 74.6704 144.043 74.2691 143.86 73.5844C143.677 72.9056 144.079 72.2032 144.763 72.0203C145.442 71.8373 146.145 72.2387 146.328 72.9233Z" fill="#F8F8F8"/>
</g>
<g style="mix-blend-mode:overlay" opacity="0.25">
<path d="M153.502 70.9976C153.685 71.6764 153.284 72.3788 152.599 72.5618C151.921 72.7448 151.218 72.3434 151.035 71.6587C150.852 70.9799 151.254 70.2775 151.938 70.0946C152.617 69.9116 153.319 70.313 153.502 70.9976Z" fill="#F8F8F8"/>
</g>
<g style="mix-blend-mode:overlay" opacity="0.25">
<path d="M160.685 69.0678C160.868 69.7465 160.467 70.4489 159.782 70.6319C159.103 70.8149 158.401 70.4135 158.218 69.7288C158.035 69.0501 158.436 68.3477 159.121 68.1647C159.8 67.9817 160.502 68.3831 160.685 69.0678Z" fill="#F8F8F8"/>
</g>
<g style="mix-blend-mode:overlay" opacity="0.25">
<path d="M167.864 67.1442C168.047 67.8229 167.646 68.5253 166.961 68.7083C166.282 68.8913 165.58 68.4899 165.397 67.8052C165.214 67.1264 165.615 66.4241 166.3 66.2411C166.979 66.0581 167.681 66.4595 167.864 67.1442Z" fill="#F8F8F8"/>
</g>
<g style="mix-blend-mode:overlay" opacity="0.25">
<path d="M119.342 87.0315C119.525 87.7102 119.124 88.4126 118.439 88.5956C117.76 88.7786 117.058 88.3772 116.875 87.6925C116.692 87.0138 117.093 86.3114 117.778 86.1284C118.457 85.9454 119.159 86.3468 119.342 87.0315Z" fill="#F8F8F8"/>
</g>
<g style="mix-blend-mode:overlay" opacity="0.25">
<path d="M126.521 85.1016C126.704 85.7804 126.302 86.4828 125.618 86.6658C124.939 86.8487 124.236 86.4474 124.053 85.7627C123.871 85.0839 124.272 84.3815 124.957 84.1985C125.635 84.0156 126.338 84.4169 126.521 85.1016Z" fill="#F8F8F8"/>
</g>
<g style="mix-blend-mode:overlay" opacity="0.25">
<path d="M133.695 83.178C133.878 83.8568 133.477 84.5592 132.792 84.7421C132.113 84.9251 131.411 84.5237 131.228 83.8391C131.045 83.1603 131.446 82.4579 132.131 82.2749C132.81 82.092 133.512 82.4933 133.695 83.178Z" fill="#F8F8F8"/>
</g>
<g style="mix-blend-mode:overlay" opacity="0.25">
<path d="M140.878 81.2481C141.061 81.9269 140.66 82.6293 139.975 82.8123C139.296 82.9953 138.594 82.5939 138.411 81.9092C138.228 81.2304 138.629 80.5281 139.314 80.3451C139.993 80.1621 140.695 80.5635 140.878 81.2481Z" fill="#F8F8F8"/>
</g>
<g style="mix-blend-mode:overlay" opacity="0.25">
<path d="M148.049 79.3224C148.231 80.0012 147.83 80.7036 147.145 80.8866C146.467 81.0695 145.764 80.6682 145.581 79.9835C145.398 79.3047 145.8 78.6023 146.484 78.4194C147.163 78.2364 147.866 78.6378 148.049 79.3224Z" fill="#F8F8F8"/>
</g>
<g style="mix-blend-mode:overlay" opacity="0.25">
<path d="M155.223 77.3926C155.406 78.0714 155.005 78.7738 154.32 78.9567C153.641 79.1397 152.939 78.7383 152.756 78.0537C152.573 77.3749 152.975 76.6725 153.659 76.4895C154.338 76.3065 155.04 76.7079 155.223 77.3926Z" fill="#F8F8F8"/>
</g>
<g style="mix-blend-mode:overlay" opacity="0.25">
<path d="M162.406 75.469C162.589 76.1477 162.188 76.8501 161.503 77.0331C160.824 77.2161 160.122 76.8147 159.939 76.13C159.756 75.4512 160.157 74.7489 160.842 74.5659C161.521 74.3829 162.223 74.7843 162.406 75.469Z" fill="#F8F8F8"/>
</g>
<g style="mix-blend-mode:overlay" opacity="0.25">
<path d="M169.585 73.5391C169.768 74.2179 169.367 74.9203 168.682 75.1032C168.003 75.2862 167.301 74.8849 167.118 74.2002C166.935 73.5214 167.336 72.819 168.021 72.636C168.7 72.4531 169.402 72.8544 169.585 73.5391Z" fill="#F8F8F8"/>
</g>
<g style="mix-blend-mode:overlay" opacity="0.25">
<path d="M121.054 93.4309C121.237 94.1096 120.836 94.812 120.151 94.995C119.473 95.178 118.77 94.7766 118.587 94.0919C118.404 93.4132 118.806 92.7108 119.49 92.5278C120.175 92.3448 120.871 92.7462 121.054 93.4309Z" fill="#F8F8F8"/>
</g>
<g style="mix-blend-mode:overlay" opacity="0.25">
<path d="M128.233 91.5093C128.416 92.1881 128.015 92.8905 127.33 93.0734C126.651 93.2564 125.949 92.855 125.766 92.1704C125.583 91.4916 125.984 90.7892 126.669 90.6062C127.348 90.4233 128.05 90.8246 128.233 91.5093Z" fill="#F8F8F8"/>
</g>
<g style="mix-blend-mode:overlay" opacity="0.25">
<path d="M135.408 89.5774C135.591 90.2561 135.189 90.9585 134.505 91.1415C133.826 91.3245 133.123 90.9231 132.94 90.2384C132.757 89.5597 133.159 88.8573 133.844 88.6743C134.522 88.4913 135.225 88.8927 135.408 89.5774Z" fill="#F8F8F8"/>
</g>
<g style="mix-blend-mode:overlay" opacity="0.25">
<path d="M142.591 87.6517C142.773 88.3304 142.372 89.0328 141.687 89.2158C141.009 89.3988 140.306 88.9974 140.123 88.3127C139.94 87.634 140.342 86.9316 141.026 86.7486C141.705 86.5656 142.408 86.967 142.591 87.6517Z" fill="#F8F8F8"/>
</g>
<g style="mix-blend-mode:overlay" opacity="0.25">
<path d="M149.761 85.7218C149.944 86.4006 149.543 87.103 148.858 87.286C148.179 87.4689 147.477 87.0676 147.294 86.3829C147.111 85.7041 147.512 85.0017 148.197 84.8187C148.876 84.6358 149.578 85.0371 149.761 85.7218Z" fill="#F8F8F8"/>
</g>
<g style="mix-blend-mode:overlay" opacity="0.25">
<path d="M156.936 83.7982C157.119 84.477 156.717 85.1794 156.033 85.3623C155.354 85.5453 154.651 85.1439 154.469 84.4593C154.286 83.7805 154.687 83.0781 155.372 82.8951C156.05 82.7121 156.753 83.1135 156.936 83.7982Z" fill="#F8F8F8"/>
</g>
<g style="mix-blend-mode:overlay" opacity="0.25">
<path d="M164.119 81.8683C164.302 82.5471 163.9 83.2495 163.216 83.4325C162.537 83.6154 161.834 83.2141 161.651 82.5294C161.468 81.8506 161.87 81.1482 162.554 80.9653C163.233 80.7823 163.936 81.1836 164.119 81.8683Z" fill="#F8F8F8"/>
</g>
<g style="mix-blend-mode:overlay" opacity="0.25">
<path d="M171.297 79.9385C171.48 80.6172 171.079 81.3196 170.394 81.5026C169.715 81.6856 169.013 81.2842 168.83 80.5995C168.647 79.9208 169.048 79.2184 169.733 79.0354C170.412 78.8524 171.114 79.2538 171.297 79.9385Z" fill="#F8F8F8"/>
</g>
<g style="mix-blend-mode:overlay" opacity="0.25">
<path d="M122.779 99.8349C122.962 100.514 122.561 101.216 121.876 101.399C121.198 101.582 120.495 101.181 120.312 100.496C120.129 99.8112 120.531 99.1148 121.215 98.9318C121.9 98.7488 122.596 99.1502 122.779 99.8349Z" fill="#F8F8F8"/>
</g>
<g style="mix-blend-mode:overlay" opacity="0.25">
<path d="M129.958 97.905C130.141 98.5838 129.74 99.2862 129.055 99.4691C128.376 99.6521 127.674 99.2508 127.491 98.5661C127.308 97.8873 127.709 97.1849 128.394 97.0019C129.073 96.819 129.775 97.2203 129.958 97.905Z" fill="#F8F8F8"/>
</g>
<g style="mix-blend-mode:overlay" opacity="0.25">
<path d="M137.133 95.9814C137.316 96.6602 136.914 97.3626 136.23 97.5455C135.551 97.7285 134.849 97.3271 134.666 96.6425C134.483 95.9637 134.884 95.2613 135.569 95.0783C136.253 94.8953 136.95 95.2967 137.133 95.9814Z" fill="#F8F8F8"/>
</g>
<g style="mix-blend-mode:overlay" opacity="0.25">
<path d="M144.307 94.0515C144.49 94.7303 144.089 95.4327 143.404 95.6157C142.725 95.7987 142.023 95.3973 141.84 94.7126C141.657 94.0338 142.059 93.3314 142.743 93.1485C143.422 92.9655 144.124 93.3669 144.307 94.0515Z" fill="#F8F8F8"/>
</g>
<g style="mix-blend-mode:overlay" opacity="0.25">
<path d="M151.482 92.1217C151.665 92.8004 151.263 93.5028 150.579 93.6858C149.9 93.8688 149.198 93.4674 149.015 92.7827C148.832 92.104 149.233 91.4016 149.918 91.2186C150.596 91.0356 151.299 91.437 151.482 92.1217Z" fill="#F8F8F8"/>
</g>
<g style="mix-blend-mode:overlay" opacity="0.25">
<path d="M158.657 90.196C158.84 90.8748 158.438 91.5771 157.754 91.7601C157.075 91.9431 156.372 91.5417 156.189 90.857C156.006 90.1783 156.408 89.4759 157.093 89.2929C157.771 89.1099 158.474 89.5113 158.657 90.196Z" fill="#F8F8F8"/>
</g>
<g style="mix-blend-mode:overlay" opacity="0.25">
<path d="M165.835 88.2661C166.018 88.9449 165.617 89.6473 164.932 89.8302C164.254 90.0132 163.551 89.6119 163.368 88.9272C163.185 88.2484 163.587 87.546 164.271 87.363C164.95 87.1801 165.652 87.5814 165.835 88.2661Z" fill="#F8F8F8"/>
</g>
<g style="mix-blend-mode:overlay" opacity="0.25">
<path d="M173.014 86.3425C173.197 87.0213 172.796 87.7236 172.111 87.9066C171.432 88.0896 170.73 87.6882 170.547 87.0036C170.364 86.3248 170.765 85.6224 171.45 85.4394C172.129 85.2564 172.831 85.6578 173.014 86.3425Z" fill="#F8F8F8"/>
</g>
<g style="mix-blend-mode:overlay" opacity="0.25">
<path d="M43.2665 75.2359C43.4495 75.9147 43.0481 76.6171 42.3635 76.8001C41.6847 76.9831 40.9823 76.5817 40.7993 75.897C40.6164 75.2182 41.0177 74.5158 41.7024 74.3329C42.3812 74.1499 43.0836 74.5513 43.2665 75.2359Z" fill="#F8F8F8"/>
</g>
<g style="mix-blend-mode:overlay" opacity="0.25">
<path d="M50.4453 73.3061C50.6282 73.9849 50.2269 74.6872 49.5422 74.8702C48.8634 75.0532 48.161 74.6518 47.978 73.9671C47.7951 73.2884 48.1964 72.586 48.8811 72.403C49.5599 72.22 50.2623 72.6214 50.4453 73.3061Z" fill="#F8F8F8"/>
</g>
<g style="mix-blend-mode:overlay" opacity="0.25">
<path d="M57.6198 71.3825C57.8028 72.0612 57.4014 72.7636 56.7168 72.9466C56.038 73.1296 55.3356 72.7282 55.1526 72.0435C54.9696 71.3648 55.371 70.6624 56.0557 70.4794C56.7344 70.2964 57.4368 70.6978 57.6198 71.3825Z" fill="#F8F8F8"/>
</g>
<g style="mix-blend-mode:overlay" opacity="0.25">
<path d="M64.7944 69.4526C64.9773 70.1314 64.576 70.8338 63.8913 71.0167C63.2125 71.1997 62.5101 70.7984 62.3272 70.1137C62.1442 69.4349 62.5456 68.7325 63.2302 68.5495C63.909 68.3666 64.6114 68.7679 64.7944 69.4526Z" fill="#F8F8F8"/>
</g>
<g style="mix-blend-mode:overlay" opacity="0.25">
<path d="M71.9689 67.5227C72.1519 68.2015 71.7506 68.9039 71.0659 69.0869C70.3871 69.2699 69.6847 68.8685 69.5017 68.1838C69.3187 67.505 69.7201 66.8026 70.4048 66.6197C71.0836 66.4367 71.786 66.8381 71.9689 67.5227Z" fill="#F8F8F8"/>
</g>
<g style="mix-blend-mode:overlay" opacity="0.25">
<path d="M79.1437 65.5971C79.3267 66.2758 78.9253 66.9782 78.2407 67.1612C77.5619 67.3442 76.8595 66.9428 76.6765 66.2581C76.4936 65.5793 76.8949 64.877 77.5796 64.694C78.2584 64.511 78.9608 64.9124 79.1437 65.5971Z" fill="#F8F8F8"/>
</g>
<g style="mix-blend-mode:overlay" opacity="0.25">
<path d="M86.3224 63.6672C86.5054 64.346 86.1041 65.0483 85.4194 65.2313C84.7406 65.4143 84.0382 65.0129 83.8552 64.3282C83.6723 63.6495 84.0736 62.9471 84.7583 62.7641C85.4371 62.5811 86.1395 62.9825 86.3224 63.6672Z" fill="#F8F8F8"/>
</g>
<g style="mix-blend-mode:overlay" opacity="0.25">
<path d="M93.5012 61.7436C93.6841 62.4224 93.2828 63.1247 92.5981 63.3077C91.9193 63.4907 91.2169 63.0893 91.0339 62.4046C90.851 61.7259 91.2523 61.0235 91.937 60.8405C92.6158 60.6575 93.3182 61.0589 93.5012 61.7436Z" fill="#F8F8F8"/>
</g>
<g style="mix-blend-mode:overlay" opacity="0.25">
<path d="M44.9873 81.6309C45.1702 82.3097 44.7689 83.012 44.0842 83.195C43.4054 83.378 42.703 82.9766 42.52 82.2919C42.3371 81.6132 42.7384 80.9108 43.4231 80.7278C44.1019 80.5448 44.8043 80.9462 44.9873 81.6309Z" fill="#F8F8F8"/>
</g>
<g style="mix-blend-mode:overlay" opacity="0.25">
<path d="M52.166 79.701C52.3489 80.3798 51.9476 81.0822 51.2629 81.2652C50.5841 81.4481 49.8817 81.0468 49.6987 80.3621C49.5158 79.6833 49.9171 78.9809 50.6018 78.798C51.2806 78.615 51.983 79.0163 52.166 79.701Z" fill="#F8F8F8"/>
</g>
<g style="mix-blend-mode:overlay" opacity="0.25">
<path d="M59.3405 77.7774C59.5235 78.4562 59.1221 79.1586 58.4374 79.3415C57.7587 79.5245 57.0563 79.1232 56.8733 78.4385C56.6903 77.7597 57.0917 77.0573 57.7764 76.8743C58.4551 76.6914 59.1575 77.0927 59.3405 77.7774Z" fill="#F8F8F8"/>
</g>
<g style="mix-blend-mode:overlay" opacity="0.25">
<path d="M66.5234 75.8476C66.7063 76.5263 66.305 77.2287 65.6203 77.4117C64.9415 77.5947 64.2391 77.1933 64.0562 76.5086C63.8732 75.8298 64.2746 75.1275 64.9592 74.9445C65.638 74.7615 66.3404 75.1629 66.5234 75.8476Z" fill="#F8F8F8"/>
</g>
<g style="mix-blend-mode:overlay" opacity="0.25">
<path d="M73.6938 73.9218C73.8768 74.6006 73.4754 75.303 72.7907 75.486C72.1119 75.669 71.4096 75.2676 71.2266 74.5829C71.0436 73.9041 71.445 73.2018 72.1296 73.0188C72.8084 72.8358 73.5108 73.2372 73.6938 73.9218Z" fill="#F8F8F8"/>
</g>
<g style="mix-blend-mode:overlay" opacity="0.25">
<path d="M80.8686 71.992C81.0516 72.6708 80.6502 73.3732 79.9655 73.5561C79.2867 73.7391 78.5844 73.3377 78.4014 72.6531C78.2184 71.9743 78.6198 71.2719 79.3044 71.0889C79.9832 70.906 80.6856 71.3073 80.8686 71.992Z" fill="#F8F8F8"/>
</g>
<g style="mix-blend-mode:overlay" opacity="0.25">
<path d="M88.0431 70.0684C88.2261 70.7472 87.8248 71.4495 87.1401 71.6325C86.4613 71.8155 85.7589 71.4141 85.5759 70.7294C85.393 70.0507 85.7943 69.3483 86.479 69.1653C87.1578 68.9823 87.8602 69.3837 88.0431 70.0684Z" fill="#F8F8F8"/>
</g>
<g style="mix-blend-mode:overlay" opacity="0.25">
<path d="M95.2219 68.1385C95.4048 68.8173 95.0035 69.5197 94.3188 69.7026C93.64 69.8856 92.9376 69.4843 92.7547 68.7996C92.5717 68.1208 92.973 67.4184 93.6577 67.2354C94.3365 67.0525 95.0389 67.4538 95.2219 68.1385Z" fill="#F8F8F8"/>
</g>
<g style="mix-blend-mode:overlay" opacity="0.25">
<path d="M46.7038 88.0306C46.8868 88.7094 46.4854 89.4118 45.8007 89.5948C45.122 89.7777 44.4196 89.3764 44.2366 88.6917C44.0536 88.0129 44.455 87.3105 45.1397 87.1276C45.8243 86.9446 46.5208 87.346 46.7038 88.0306Z" fill="#F8F8F8"/>
</g>
<g style="mix-blend-mode:overlay" opacity="0.25">
<path d="M53.8825 86.107C54.0655 86.7858 53.6641 87.4882 52.9794 87.6711C52.3007 87.8541 51.5983 87.4527 51.4153 86.7681C51.2323 86.0893 51.6337 85.3869 52.3184 85.2039C53.003 85.021 53.6995 85.4223 53.8825 86.107Z" fill="#F8F8F8"/>
</g>
<g style="mix-blend-mode:overlay" opacity="0.25">
<path d="M61.0571 84.1771C61.24 84.8559 60.8387 85.5583 60.154 85.7413C59.4752 85.9243 58.7728 85.5229 58.5899 84.8382C58.4069 84.1594 58.8082 83.4571 59.4929 83.2741C60.1717 83.0911 60.8741 83.4925 61.0571 84.1771Z" fill="#F8F8F8"/>
</g>
<g style="mix-blend-mode:overlay" opacity="0.25">
<path d="M68.2399 82.2535C68.4229 82.9323 68.0215 83.6347 67.3369 83.8177C66.6581 84.0006 65.9557 83.5993 65.7727 82.9146C65.5897 82.2358 65.9911 81.5334 66.6758 81.3505C67.3546 81.1675 68.0569 81.5689 68.2399 82.2535Z" fill="#F8F8F8"/>
</g>
<g style="mix-blend-mode:overlay" opacity="0.25">
<path d="M75.4103 80.3237C75.5933 81.0024 75.1919 81.7048 74.5073 81.8878C73.8285 82.0708 73.1261 81.6694 72.9431 80.9847C72.7602 80.3059 73.1615 79.6036 73.8462 79.4206C74.525 79.2376 75.2274 79.639 75.4103 80.3237Z" fill="#F8F8F8"/>
</g>
<g style="mix-blend-mode:overlay" opacity="0.25">
<path d="M82.5851 78.398C82.7681 79.0767 82.3667 79.7791 81.6821 79.9621C81.0033 80.1451 80.3009 79.7437 80.1179 79.059C79.935 78.3803 80.3363 77.6779 81.021 77.4949C81.6998 77.3119 82.4022 77.7133 82.5851 78.398Z" fill="#F8F8F8"/>
</g>
<g style="mix-blend-mode:overlay" opacity="0.25">
<path d="M89.768 76.4681C89.951 77.1469 89.5496 77.8493 88.8649 78.0322C88.1862 78.2152 87.4838 77.8138 87.3008 77.1292C87.1178 76.4504 87.5192 75.748 88.2039 75.565C88.8826 75.3821 89.585 75.7834 89.768 76.4681Z" fill="#F8F8F8"/>
</g>
<g style="mix-blend-mode:overlay" opacity="0.25">
<path d="M96.9467 74.5445C97.1297 75.2233 96.7283 75.9257 96.0437 76.1086C95.3649 76.2916 94.6625 75.8902 94.4795 75.2056C94.2965 74.5268 94.6979 73.8244 95.3826 73.6414C96.0614 73.4584 96.7638 73.8598 96.9467 74.5445Z" fill="#F8F8F8"/>
</g>
<g style="mix-blend-mode:overlay" opacity="0.25">
<path d="M48.4162 94.4365C48.5992 95.1152 48.1978 95.8176 47.5131 96.0006C46.8343 96.1836 46.132 95.7822 45.949 95.0975C45.766 94.4188 46.1674 93.7164 46.8521 93.5334C47.5308 93.3504 48.2332 93.7518 48.4162 94.4365Z" fill="#F8F8F8"/>
</g>
<g style="mix-blend-mode:overlay" opacity="0.25">
<path d="M55.5949 92.5066C55.7779 93.1854 55.3765 93.8878 54.6918 94.0707C54.0131 94.2537 53.3107 93.8524 53.1277 93.1677C52.9447 92.4889 53.3461 91.7865 54.0308 91.6035C54.7095 91.4206 55.4119 91.8219 55.5949 92.5066Z" fill="#F8F8F8"/>
</g>
<g style="mix-blend-mode:overlay" opacity="0.25">
<path d="M62.7695 90.583C62.9524 91.2618 62.5511 91.9642 61.8664 92.1471C61.1876 92.3301 60.4852 91.9288 60.3023 91.2441C60.1193 90.5653 60.5206 89.8629 61.2053 89.6799C61.89 89.497 62.5865 89.8983 62.7695 90.583Z" fill="#F8F8F8"/>
</g>
<g style="mix-blend-mode:overlay" opacity="0.25">
<path d="M69.9523 88.6531C70.1353 89.3319 69.7339 90.0343 69.0493 90.2173C68.3705 90.4003 67.6681 89.9989 67.4851 89.3142C67.3021 88.6354 67.7035 87.933 68.3882 87.7501C69.0729 87.5671 69.7693 87.9685 69.9523 88.6531Z" fill="#F8F8F8"/>
</g>
<g style="mix-blend-mode:overlay" opacity="0.25">
<path d="M77.1227 86.7274C77.3057 87.4062 76.9043 88.1086 76.2197 88.2916C75.5409 88.4746 74.8385 88.0732 74.6555 87.3885C74.4726 86.7097 74.8739 86.0073 75.5586 85.8244C76.2374 85.6414 76.9398 86.0428 77.1227 86.7274Z" fill="#F8F8F8"/>
</g>
<g style="mix-blend-mode:overlay" opacity="0.25">
<path d="M84.2975 84.7976C84.4805 85.4764 84.0792 86.1787 83.3945 86.3617C82.7157 86.5447 82.0133 86.1433 81.8303 85.4586C81.6474 84.7799 82.0487 84.0775 82.7334 83.8945C83.4122 83.7115 84.1146 84.1129 84.2975 84.7976Z" fill="#F8F8F8"/>
</g>
<g style="mix-blend-mode:overlay" opacity="0.25">
<path d="M91.4804 82.8677C91.6634 83.5465 91.262 84.2489 90.5773 84.4318C89.8986 84.6148 89.1962 84.2135 89.0132 83.5288C88.8302 82.85 89.2316 82.1476 89.9163 81.9646C90.5951 81.7817 91.2974 82.183 91.4804 82.8677Z" fill="#F8F8F8"/>
</g>
<g style="mix-blend-mode:overlay" opacity="0.25">
<path d="M98.6591 80.9441C98.8421 81.6229 98.4407 82.3253 97.7561 82.5082C97.0773 82.6912 96.3749 82.2898 96.1919 81.6052C96.0089 80.9264 96.4103 80.224 97.095 80.041C97.7738 79.8581 98.4762 80.2594 98.6591 80.9441Z" fill="#F8F8F8"/>
</g>
<g style="mix-blend-mode:overlay" opacity="0.25">
<path d="M50.1462 100.836C50.3291 101.515 49.9278 102.217 49.2431 102.4C48.5643 102.583 47.8619 102.182 47.679 101.497C47.496 100.818 47.8974 100.116 48.582 99.9328C49.2608 99.7498 49.9632 100.151 50.1462 100.836Z" fill="#F8F8F8"/>
</g>
<g style="mix-blend-mode:overlay" opacity="0.25">
<path d="M57.3207 98.9143C57.5037 99.5931 57.1023 100.295 56.4177 100.478C55.7389 100.661 55.0365 100.26 54.8535 99.5753C54.6706 98.8966 55.0719 98.1942 55.7566 98.0112C56.4354 97.8282 57.1378 98.2296 57.3207 98.9143Z" fill="#F8F8F8"/>
</g>
<g style="mix-blend-mode:overlay" opacity="0.25">
<path d="M64.4953 96.9824C64.6783 97.6611 64.2769 98.3635 63.5922 98.5465C62.9134 98.7295 62.2111 98.3281 62.0281 97.6434C61.8451 96.9646 62.2465 96.2623 62.9312 96.0793C63.6099 95.8963 64.3123 96.2977 64.4953 96.9824Z" fill="#F8F8F8"/>
</g>
<g style="mix-blend-mode:overlay" opacity="0.25">
<path d="M71.674 95.0525C71.857 95.7313 71.4556 96.4337 70.7709 96.6166C70.0922 96.7996 69.3898 96.3982 69.2068 95.7136C69.0238 95.0348 69.4252 94.3324 70.1099 94.1494C70.7886 93.9665 71.491 94.3678 71.674 95.0525Z" fill="#F8F8F8"/>
</g>
<g style="mix-blend-mode:overlay" opacity="0.25">
<path d="M78.8486 93.1268C79.0315 93.8056 78.6302 94.508 77.9455 94.6909C77.2667 94.8739 76.5643 94.4725 76.3814 93.7879C76.1984 93.1091 76.5997 92.4067 77.2844 92.2237C77.9632 92.0407 78.6656 92.4421 78.8486 93.1268Z" fill="#F8F8F8"/>
</g>
<g style="mix-blend-mode:overlay" opacity="0.25">
<path d="M86.0234 91.1969C86.2064 91.8757 85.805 92.5781 85.1203 92.7611C84.4415 92.944 83.7391 92.5427 83.5562 91.858C83.3732 91.1792 83.7746 90.4768 84.4593 90.2939C85.138 90.1109 85.8404 90.5123 86.0234 91.1969Z" fill="#F8F8F8"/>
</g>
<g style="mix-blend-mode:overlay" opacity="0.25">
<path d="M93.2021 89.2733C93.3851 89.9521 92.9837 90.6545 92.299 90.8374C91.6203 91.0204 90.9179 90.6191 90.7349 89.9344C90.5519 89.2556 90.9533 88.5532 91.6379 88.3702C92.3167 88.1873 93.0191 88.5886 93.2021 89.2733Z" fill="#F8F8F8"/>
</g>
<g style="mix-blend-mode:overlay" opacity="0.25">
<path d="M100.381 87.3435C100.564 88.0222 100.162 88.7246 99.4777 88.9076C98.7989 89.0906 98.0966 88.6892 97.9136 88.0045C97.7306 87.3257 98.132 86.6234 98.8167 86.4404C99.4954 86.2574 100.198 86.6588 100.381 87.3435Z" fill="#F8F8F8"/>
</g>
<path d="M92.5258 62.2749L92.03 68.3308C92.03 68.3308 89.8874 73.0173 86.9539 78.0579C86.2574 77.4087 85.4015 76.606 84.4395 75.6734C87.8215 72.0021 90.5721 65.5684 91.8883 62.1273C92.024 61.7673 92.5553 61.8971 92.5258 62.2749Z" fill="url(#paint50_linear_1_101)"/>
<path d="M119.03 42.8212C117.36 46.8408 114.373 51.2144 109.345 50.5121C103.69 49.7211 103.401 45.8905 103.979 43.1281C106.399 42.532 108.076 42.166 108.076 42.166L114.887 41.564C114.887 41.564 116.575 42.0303 119.03 42.8212Z" fill="#F8F8F8"/>
<path d="M78.8804 79.5103L73.6213 75.9334C73.6213 75.9334 74.489 73.7023 75.8347 70.4973L78.8804 79.5103Z" fill="url(#paint51_linear_1_101)"/>
<path d="M100.16 25.1329C96.406 18.7111 99.9474 12.0886 99.9474 12.0886C99.9474 12.0886 97.7045 8.93081 100.579 6.54623C103.453 4.16166 106.363 6.79414 106.363 6.79414C106.363 6.79414 105.065 3.50059 108.223 2.72738C111.38 1.95416 113.694 6.51672 117.867 8.34057C122.04 10.1644 125.859 13.7767 125.93 16.3678C126.001 18.9649 125.369 19.5256 125.369 19.5256C125.369 19.5256 127.966 20.6117 126.278 24.0469C124.596 27.4821 123.262 28.9577 119.72 31.8322C116.179 34.7066 111.971 31.7613 111.935 31.4131L100.154 25.1388L100.16 25.1329Z" fill="url(#paint52_linear_1_101)"/>
<path d="M115.796 35.3747C115.796 38.621 116.009 42.4871 116.009 42.4871C116.009 42.4871 113.748 48.7436 109.487 48.7436C105.225 48.7436 106.276 42.7999 106.276 42.7999C106.276 42.7999 106.276 42.3454 106.234 41.5604C106.181 40.498 106.052 38.8453 105.75 36.9093L116.009 31.6503C115.855 32.4294 115.802 33.8282 115.796 35.3747Z" fill="#FFD9D9"/>
<path d="M116.009 31.6503C115.855 32.4294 115.802 33.8282 115.796 35.3747C113.949 38.6741 110.165 41.7493 106.234 41.5604C106.181 40.498 106.052 38.8453 105.75 36.9093L116.009 31.6503Z" fill="url(#paint53_linear_1_101)"/>
<path d="M101.227 13.8219C99.8581 17.8179 99.8345 19.4469 99.7282 22.4218C99.622 25.3907 97.9516 36.6643 105.766 37.7562C113.587 38.8423 118.427 30.148 118.427 30.148C118.427 30.148 120.215 32.2493 122.529 30.148C124.843 28.0468 122.948 24.8181 120.989 24.889C119.023 24.9598 118.327 27.4506 118.327 27.4506L118.079 22.1561C118.079 22.1561 115.381 19.6299 112.33 19.3525C109.278 19.0692 103.742 18.7918 101.233 13.8278L101.227 13.8219Z" fill="#FFD9D9"/>
<path d="M121.711 27.0756C120.43 26.267 119.433 28.3033 120.324 29.3008" stroke="#E16D90" stroke-width="0.45" stroke-linecap="round" stroke-linejoin="round"/>
<path d="M106.754 23.727L105.042 28.7441C104.871 29.2517 105.172 29.8006 105.691 29.9246L106.754 30.1784" stroke="#E16D90" stroke-width="0.45" stroke-linecap="round" stroke-linejoin="round"/>
<path d="M111.348 25.4463C111.348 25.8359 111.035 26.1487 110.646 26.1487C110.256 26.1487 109.943 25.8359 109.943 25.4463C109.943 25.0568 110.256 24.7439 110.646 24.7439C111.035 24.7439 111.348 25.0568 111.348 25.4463Z" fill="#2A3249"/>
<path d="M103.491 25.1323C103.491 25.5219 103.178 25.8347 102.789 25.8347C102.399 25.8347 102.086 25.5219 102.086 25.1323C102.086 24.7428 102.399 24.4299 102.789 24.4299C103.178 24.4299 103.491 24.7428 103.491 25.1323Z" fill="#2A3249"/>
<path d="M109.344 22.8497C109.344 22.8497 111.062 21.4095 112.708 23.4105" stroke="#2A3249" stroke-width="0.47" stroke-miterlimit="10" stroke-linecap="round"/>
<path d="M101.309 22.5021C101.309 22.5021 102.885 20.6488 104.567 22.3546" stroke="#2A3249" stroke-width="0.47" stroke-miterlimit="10" stroke-linecap="round"/>
<path d="M110.233 31.6669C110.357 32.8592 109.49 33.9275 108.297 34.0515C107.105 34.1754 106.037 33.3078 105.913 32.1155L110.233 31.6669Z" fill="#F8F8F8"/>
<path d="M14.4332 58.4361C18.7725 56.6201 20.8179 51.6303 19.0019 47.2911C17.1859 42.9519 12.1961 40.9064 7.85684 42.7224C3.51763 44.5385 1.47218 49.5283 3.2882 53.8675C5.10423 58.2067 10.094 60.2522 14.4332 58.4361Z" fill="url(#paint54_linear_1_101)"/>
<path d="M7.65283 49.6928L10.5745 52.6086L14.6354 48.5477" stroke="#F8F8F8" stroke-width="3" stroke-linecap="round" stroke-linejoin="round"/>
<path d="M53.4522 113.509C40.5318 100.801 42.7688 81.2342 42.7688 81.2342C42.7688 81.2342 59.0064 95.6597 53.4522 113.509Z" fill="url(#paint55_linear_1_101)"/>
<g style="mix-blend-mode:overlay">
<path d="M44.7671 85.6138C50.7935 100.576 53.4495 113.503 53.4495 113.503" stroke="#161515" stroke-linecap="round" stroke-linejoin="round"/>
</g>
<path d="M54.7149 117.777C70.008 108.049 71.9027 88.4476 71.9027 88.4476C71.9027 88.4476 53.0091 99.1604 54.7149 117.777Z" fill="url(#paint56_linear_1_101)"/>
<g style="mix-blend-mode:overlay">
<path d="M69.0334 92.3177C60.0145 105.693 54.7141 117.781 54.7141 117.781" stroke="#161515" stroke-linecap="round" stroke-linejoin="round"/>
</g>
<path d="M55.9178 109.608C65.8929 94.4802 59.6068 75.8109 59.6068 75.8109C59.6068 75.8109 46.7454 93.3175 55.9178 109.608Z" fill="url(#paint57_linear_1_101)"/>
<g style="mix-blend-mode:overlay">
<path d="M58.5731 80.5149C55.8108 96.4101 55.917 109.608 55.917 109.608" stroke="#161515" stroke-linecap="round" stroke-linejoin="round"/>
</g>
<path d="M69.3285 110.542H43.6589C42.0711 110.542 40.7844 109.255 40.7844 107.667C40.7844 106.08 42.0711 104.793 43.6589 104.793H69.3285C70.9162 104.793 72.2029 106.08 72.2029 107.667C72.2029 109.255 70.9162 110.542 69.3285 110.542Z" fill="url(#paint58_linear_1_101)"/>
<path d="M68.3422 110.537L67.4155 117.779L66.4534 125.334C64.1751 125.015 61.8496 124.638 59.4827 124.183C54.5955 123.251 50.0743 121.987 45.9071 120.447L44.8801 112.367L44.644 110.537H68.3422Z" fill="url(#paint59_linear_1_101)"/>
<path d="M68.3422 110.537L67.4155 117.779L44.8801 112.367L44.644 110.537H68.3422Z" fill="url(#paint60_linear_1_101)"/>
<path d="M39.909 66.0889H20.3188V88.6184H39.909V66.0889Z" fill="url(#paint61_linear_1_101)"/>
<path d="M36.5505 74.8454H23.6714C23.4471 74.8454 23.2642 74.6625 23.2642 74.4382C23.2642 74.2139 23.4471 74.0309 23.6714 74.0309H36.5505C36.7748 74.0309 36.9577 74.2139 36.9577 74.4382C36.9577 74.6625 36.7748 74.8454 36.5505 74.8454Z" fill="#F8F8F8"/>
<path d="M36.5505 77.8151H23.6714C23.4471 77.8151 23.2642 77.6321 23.2642 77.4078C23.2642 77.1835 23.4471 77.0005 23.6714 77.0005H36.5505C36.7748 77.0005 36.9577 77.1835 36.9577 77.4078C36.9577 77.6321 36.7748 77.8151 36.5505 77.8151Z" fill="#F8F8F8"/>
<path d="M36.5505 80.7868H23.6714C23.4471 80.7868 23.2642 80.6038 23.2642 80.3796C23.2642 80.1553 23.4471 79.9723 23.6714 79.9723H36.5505C36.7748 79.9723 36.9577 80.1553 36.9577 80.3796C36.9577 80.6038 36.7748 80.7868 36.5505 80.7868Z" fill="#F8F8F8"/>
<path d="M30.9314 82.9378H23.577C23.4042 82.9378 23.2642 83.0778 23.2642 83.2506V83.4395C23.2642 83.6123 23.4042 83.7523 23.577 83.7523H30.9314C31.1042 83.7523 31.2442 83.6123 31.2442 83.4395V83.2506C31.2442 83.0778 31.1042 82.9378 30.9314 82.9378Z" fill="#F8F8F8"/>
<path d="M83.7131 147.365C94.6758 147.365 103.563 138.478 103.563 127.515C103.563 116.552 94.6758 107.665 83.7131 107.665C72.7503 107.665 63.8633 116.552 63.8633 127.515C63.8633 138.478 72.7503 147.365 83.7131 147.365Z" fill="url(#paint62_linear_1_101)"/>
<g style="mix-blend-mode:overlay" opacity="0.25">
<path d="M100.232 131.491C102.42 122.375 96.8042 113.21 87.688 111.022C78.5719 108.833 69.4075 114.449 67.2189 123.565C65.0303 132.681 70.6462 141.846 79.7624 144.034C88.8786 146.223 98.0429 140.607 100.232 131.491Z" stroke="#F8F8F8" stroke-linecap="round" stroke-linejoin="round"/>
</g>
<path d="M96.8098 130.043C98.2162 122.801 93.4857 115.791 86.244 114.384C79.0023 112.978 71.9918 117.709 70.5854 124.95C69.1791 132.192 73.9096 139.203 81.1513 140.609C88.3929 142.015 95.4035 137.285 96.8098 130.043Z" fill="url(#paint63_linear_1_101)"/>
<path d="M82.6971 125.808C83.6415 125.248 84.8574 125.56 85.4181 126.499C85.9789 127.443 85.666 128.659 84.7275 129.22C83.7832 129.781 82.5673 129.468 82.0065 128.529C81.4458 127.585 81.7586 126.369 82.6971 125.808Z" fill="#F8F8F8"/>
<path d="M70.5293 135.041L70.8069 135.508C70.9419 135.735 71.2352 135.81 71.4622 135.675L80.5481 130.271C80.7751 130.136 80.8496 129.843 80.7147 129.616L80.4371 129.149C80.3021 128.922 80.0087 128.848 79.7818 128.983L70.6959 134.386C70.4689 134.521 70.3944 134.815 70.5293 135.041Z" fill="#F8F8F8"/>
<path d="M86.6703 116.925L85.994 116.758C85.7787 116.705 85.5613 116.837 85.5083 117.052L83.9422 123.414C83.8892 123.629 84.0207 123.846 84.236 123.899L84.9123 124.066C85.1275 124.119 85.3449 123.987 85.3979 123.772L86.9641 117.41C87.017 117.195 86.8855 116.978 86.6703 116.925Z" fill="#F8F8F8"/>
<path d="M161.161 50.4687C166.529 45.1003 166.529 36.3964 161.161 31.0279C155.793 25.6595 147.089 25.6595 141.72 31.0279C136.352 36.3963 136.352 45.1003 141.72 50.4687C147.089 55.8371 155.793 55.8371 161.161 50.4687Z" fill="url(#paint64_linear_1_101)"/>
<path d="M155.405 35.6281C154.307 34.5303 152.872 33.9813 151.438 33.9813C150.004 33.9813 148.57 34.5303 147.472 35.6281C145.276 37.8179 145.276 41.3653 147.472 43.5609L151.438 47.5274L155.405 43.5609C156.497 42.4631 157.045 41.0288 157.045 39.5945C157.045 38.1602 156.497 36.7201 155.405 35.6281ZM151.438 41.2767C150.506 41.2767 149.75 40.5212 149.75 39.5886C149.75 38.656 150.506 37.9005 151.438 37.9005C152.371 37.9005 153.126 38.656 153.126 39.5886C153.126 40.5212 152.371 41.2767 151.438 41.2767Z" fill="#F8F8F8"/>
<defs>
<linearGradient id="paint0_linear_1_101" x1="80.1035" y1="94.5212" x2="82.2107" y2="209.813" gradientUnits="userSpaceOnUse">
<stop stop-color="#E0F0FF"/>
<stop offset="1" stop-color="#9CB1EC"/>
</linearGradient>
<linearGradient id="paint1_linear_1_101" x1="122.059" y1="-7.04813" x2="121.126" y2="151.042" gradientUnits="userSpaceOnUse">
<stop stop-color="#E0F0FF"/>
<stop offset="1" stop-color="#9CB1EC"/>
</linearGradient>
<linearGradient id="paint2_linear_1_101" x1="163.608" y1="51.8756" x2="448.553" y2="69.6831" gradientUnits="userSpaceOnUse">
<stop stop-color="#E0F0FF"/>
<stop offset="1" stop-color="#9CB1EC"/>
</linearGradient>
<linearGradient id="paint3_linear_1_101" x1="59.8464" y1="-6.94206" x2="58.9138" y2="150.971" gradientUnits="userSpaceOnUse">
<stop stop-color="#E0F0FF"/>
<stop offset="1" stop-color="#9CB1EC"/>
</linearGradient>
<linearGradient id="paint4_linear_1_101" x1="101.236" y1="50.8504" x2="383.112" y2="68.4691" gradientUnits="userSpaceOnUse">
<stop stop-color="#E0F0FF"/>
<stop offset="1" stop-color="#9CB1EC"/>
</linearGradient>
<linearGradient id="paint5_linear_1_101" x1="77.5891" y1="-70.5653" x2="-0.860207" y2="146.431" gradientUnits="userSpaceOnUse">
<stop offset="0.01" stop-color="#FFBAC0"/>
<stop offset="1" stop-color="#F54A8F"/>
</linearGradient>
<linearGradient id="paint6_linear_1_101" x1="4.26889" y1="-33.4098" x2="61.4662" y2="56.585" gradientUnits="userSpaceOnUse">
<stop stop-color="#E0F0FF"/>
<stop offset="1" stop-color="white"/>
</linearGradient>
<linearGradient id="paint7_linear_1_101" x1="9.37993" y1="7.01855" x2="23.1698" y2="36.775" gradientUnits="userSpaceOnUse">
<stop stop-color="#E0F0FF"/>
<stop offset="1" stop-color="#9CB1EC"/>
</linearGradient>
<linearGradient id="paint8_linear_1_101" x1="12.3059" y1="5.66593" x2="26.0958" y2="35.4224" gradientUnits="userSpaceOnUse">
<stop stop-color="#E0F0FF"/>
<stop offset="1" stop-color="#9CB1EC"/>
</linearGradient>
<linearGradient id="paint9_linear_1_101" x1="14.54" y1="4.6269" x2="28.3358" y2="34.3826" gradientUnits="userSpaceOnUse">
<stop stop-color="#E0F0FF"/>
<stop offset="1" stop-color="#9CB1EC"/>
</linearGradient>
<linearGradient id="paint10_linear_1_101" x1="17.1674" y1="3.4065" x2="30.9574" y2="33.1629" gradientUnits="userSpaceOnUse">
<stop stop-color="#E0F0FF"/>
<stop offset="1" stop-color="#9CB1EC"/>
</linearGradient>
<linearGradient id="paint11_linear_1_101" x1="19.1794" y1="2.4771" x2="32.9693" y2="32.2335" gradientUnits="userSpaceOnUse">
<stop stop-color="#E0F0FF"/>
<stop offset="1" stop-color="#9CB1EC"/>
</linearGradient>
<linearGradient id="paint12_linear_1_101" x1="21.0455" y1="1.60853" x2="34.842" y2="31.3701" gradientUnits="userSpaceOnUse">
<stop stop-color="#E0F0FF"/>
<stop offset="1" stop-color="#9CB1EC"/>
</linearGradient>
<linearGradient id="paint13_linear_1_101" x1="54.2003" y1="-0.648475" x2="69.0993" y2="61.7935" gradientUnits="userSpaceOnUse">
<stop stop-color="#E0F0FF"/>
<stop offset="1" stop-color="#9CB1EC"/>
</linearGradient>
<linearGradient id="paint14_linear_1_101" x1="38.9841" y1="58.9758" x2="153.424" y2="214.679" gradientUnits="userSpaceOnUse">
<stop stop-color="#E0F0FF"/>
<stop offset="1" stop-color="#9CB1EC"/>
</linearGradient>
<linearGradient id="paint15_linear_1_101" x1="45.7762" y1="53.9809" x2="160.216" y2="209.683" gradientUnits="userSpaceOnUse">
<stop stop-color="#E0F0FF"/>
<stop offset="1" stop-color="#9CB1EC"/>
</linearGradient>
<linearGradient id="paint16_linear_1_101" x1="52.5724" y1="48.9921" x2="167.012" y2="204.695" gradientUnits="userSpaceOnUse">
<stop stop-color="#E0F0FF"/>
<stop offset="1" stop-color="#9CB1EC"/>
</linearGradient>
<linearGradient id="paint17_linear_1_101" x1="59.3595" y1="43.9975" x2="173.799" y2="199.7" gradientUnits="userSpaceOnUse">
<stop stop-color="#E0F0FF"/>
<stop offset="1" stop-color="#9CB1EC"/>
</linearGradient>
<linearGradient id="paint18_linear_1_101" x1="66.1658" y1="39.0081" x2="180.606" y2="194.711" gradientUnits="userSpaceOnUse">
<stop stop-color="#E0F0FF"/>
<stop offset="1" stop-color="#9CB1EC"/>
</linearGradient>
<linearGradient id="paint19_linear_1_101" x1="72.9471" y1="34.0058" x2="187.387" y2="189.709" gradientUnits="userSpaceOnUse">
<stop stop-color="#E0F0FF"/>
<stop offset="1" stop-color="#9CB1EC"/>
</linearGradient>
<linearGradient id="paint20_linear_1_101" x1="79.7423" y1="29.0153" x2="194.182" y2="184.718" gradientUnits="userSpaceOnUse">
<stop stop-color="#E0F0FF"/>
<stop offset="1" stop-color="#9CB1EC"/>
</linearGradient>
<linearGradient id="paint21_linear_1_101" x1="35.6427" y1="61.4453" x2="150.083" y2="217.148" gradientUnits="userSpaceOnUse">
<stop stop-color="#E0F0FF"/>
<stop offset="1" stop-color="#9CB1EC"/>
</linearGradient>
<linearGradient id="paint22_linear_1_101" x1="42.4289" y1="56.4427" x2="156.869" y2="212.145" gradientUnits="userSpaceOnUse">
<stop stop-color="#E0F0FF"/>
<stop offset="1" stop-color="#9CB1EC"/>
</linearGradient>
<linearGradient id="paint23_linear_1_101" x1="49.232" y1="51.4529" x2="163.672" y2="207.156" gradientUnits="userSpaceOnUse">
<stop stop-color="#E0F0FF"/>
<stop offset="1" stop-color="#9CB1EC"/>
</linearGradient>
<linearGradient id="paint24_linear_1_101" x1="56.0226" y1="46.4566" x2="170.463" y2="202.159" gradientUnits="userSpaceOnUse">
<stop stop-color="#E0F0FF"/>
<stop offset="1" stop-color="#9CB1EC"/>
</linearGradient>
<linearGradient id="paint25_linear_1_101" x1="62.8227" y1="41.4699" x2="177.263" y2="197.173" gradientUnits="userSpaceOnUse">
<stop stop-color="#E0F0FF"/>
<stop offset="1" stop-color="#9CB1EC"/>
</linearGradient>
<linearGradient id="paint26_linear_1_101" x1="69.6181" y1="36.4732" x2="184.058" y2="192.176" gradientUnits="userSpaceOnUse">
<stop stop-color="#E0F0FF"/>
<stop offset="1" stop-color="#9CB1EC"/>
</linearGradient>
<linearGradient id="paint27_linear_1_101" x1="76.4102" y1="31.4803" x2="190.85" y2="187.183" gradientUnits="userSpaceOnUse">
<stop stop-color="#E0F0FF"/>
<stop offset="1" stop-color="#9CB1EC"/>
</linearGradient>
<linearGradient id="paint28_linear_1_101" x1="32.2964" y1="63.8953" x2="146.736" y2="219.598" gradientUnits="userSpaceOnUse">
<stop stop-color="#E0F0FF"/>
<stop offset="1" stop-color="#9CB1EC"/>
</linearGradient>
<linearGradient id="paint29_linear_1_101" x1="39.0857" y1="58.908" x2="153.526" y2="214.611" gradientUnits="userSpaceOnUse">
<stop stop-color="#E0F0FF"/>
<stop offset="1" stop-color="#9CB1EC"/>
</linearGradient>
<linearGradient id="paint30_linear_1_101" x1="37.2078" y1="34.79" x2="49.8331" y2="70.1337" gradientUnits="userSpaceOnUse">
<stop stop-color="#D4B6FF"/>
<stop offset="1" stop-color="#7D35F0"/>
</linearGradient>
<linearGradient id="paint31_linear_1_101" x1="52.6711" y1="48.9111" x2="167.111" y2="204.614" gradientUnits="userSpaceOnUse">
<stop stop-color="#E0F0FF"/>
<stop offset="1" stop-color="#9CB1EC"/>
</linearGradient>
<linearGradient id="paint32_linear_1_101" x1="59.4722" y1="43.92" x2="173.912" y2="199.623" gradientUnits="userSpaceOnUse">
<stop stop-color="#E0F0FF"/>
<stop offset="1" stop-color="#9CB1EC"/>
</linearGradient>
<linearGradient id="paint33_linear_1_101" x1="66.2611" y1="38.9309" x2="180.701" y2="194.634" gradientUnits="userSpaceOnUse">
<stop stop-color="#E0F0FF"/>
<stop offset="1" stop-color="#9CB1EC"/>
</linearGradient>
<linearGradient id="paint34_linear_1_101" x1="73.0528" y1="33.9401" x2="187.493" y2="189.643" gradientUnits="userSpaceOnUse">
<stop stop-color="#E0F0FF"/>
<stop offset="1" stop-color="#9CB1EC"/>
</linearGradient>
<linearGradient id="paint35_linear_1_101" x1="28.9286" y1="66.356" x2="143.369" y2="222.059" gradientUnits="userSpaceOnUse">
<stop stop-color="#E0F0FF"/>
<stop offset="1" stop-color="#9CB1EC"/>
</linearGradient>
<linearGradient id="paint36_linear_1_101" x1="35.7214" y1="61.3648" x2="150.161" y2="217.068" gradientUnits="userSpaceOnUse">
<stop stop-color="#E0F0FF"/>
<stop offset="1" stop-color="#9CB1EC"/>
</linearGradient>
<linearGradient id="paint37_linear_1_101" x1="42.5168" y1="56.3743" x2="156.957" y2="212.077" gradientUnits="userSpaceOnUse">
<stop stop-color="#E0F0FF"/>
<stop offset="1" stop-color="#9CB1EC"/>
</linearGradient>
<linearGradient id="paint38_linear_1_101" x1="49.304" y1="51.3797" x2="163.744" y2="207.082" gradientUnits="userSpaceOnUse">
<stop stop-color="#E0F0FF"/>
<stop offset="1" stop-color="#9CB1EC"/>
</linearGradient>
<linearGradient id="paint39_linear_1_101" x1="56.1051" y1="46.3885" x2="170.545" y2="202.091" gradientUnits="userSpaceOnUse">
<stop stop-color="#E0F0FF"/>
<stop offset="1" stop-color="#9CB1EC"/>
</linearGradient>
<linearGradient id="paint40_linear_1_101" x1="62.9099" y1="41.3874" x2="177.35" y2="197.096" gradientUnits="userSpaceOnUse">
<stop stop-color="#E0F0FF"/>
<stop offset="1" stop-color="#9CB1EC"/>
</linearGradient>
<linearGradient id="paint41_linear_1_101" x1="69.6927" y1="36.3969" x2="184.133" y2="192.099" gradientUnits="userSpaceOnUse">
<stop stop-color="#E0F0FF"/>
<stop offset="1" stop-color="#9CB1EC"/>
</linearGradient>
<linearGradient id="paint42_linear_1_101" x1="21.8961" y1="4.36213" x2="22.8602" y2="11.8799" gradientUnits="userSpaceOnUse">
<stop stop-color="#2A3264"/>
<stop offset="1" stop-color="#4F61A5"/>
</linearGradient>
<linearGradient id="paint43_linear_1_101" x1="34.2238" y1="2.94552" x2="35.188" y2="10.4633" gradientUnits="userSpaceOnUse">
<stop stop-color="#2A3264"/>
<stop offset="1" stop-color="#4F61A5"/>
</linearGradient>
<linearGradient id="paint44_linear_1_101" x1="46.5531" y1="1.52788" x2="47.5173" y2="9.04566" gradientUnits="userSpaceOnUse">
<stop stop-color="#2A3264"/>
<stop offset="1" stop-color="#4F61A5"/>
</linearGradient>
<linearGradient id="paint45_linear_1_101" x1="58.8785" y1="0.11717" x2="59.8427" y2="7.63495" gradientUnits="userSpaceOnUse">
<stop stop-color="#2A3264"/>
<stop offset="1" stop-color="#4F61A5"/>
</linearGradient>
<linearGradient id="paint46_linear_1_101" x1="71.2021" y1="-1.29946" x2="72.1721" y2="6.21765" gradientUnits="userSpaceOnUse">
<stop stop-color="#2A3264"/>
<stop offset="1" stop-color="#4F61A5"/>
</linearGradient>
<linearGradient id="paint47_linear_1_101" x1="117.935" y1="48.336" x2="107.334" y2="137.586" gradientUnits="userSpaceOnUse">
<stop stop-color="#2A3264"/>
<stop offset="1" stop-color="#4F61A5"/>
</linearGradient>
<linearGradient id="paint48_linear_1_101" x1="106.344" y1="51.5214" x2="124.86" y2="154.607" gradientUnits="userSpaceOnUse">
<stop stop-color="#79D0FF"/>
<stop offset="1" stop-color="#0E3BF0"/>
</linearGradient>
<linearGradient id="paint49_linear_1_101" x1="99.5967" y1="54.662" x2="136.339" y2="128.997" gradientUnits="userSpaceOnUse">
<stop stop-color="#79D0FF"/>
<stop offset="1" stop-color="#0E3BF0"/>
</linearGradient>
<linearGradient id="paint50_linear_1_101" x1="79.9949" y1="49.3663" x2="107.205" y2="112.056" gradientUnits="userSpaceOnUse">
<stop stop-color="#79D0FF"/>
<stop offset="1" stop-color="#0E3BF0"/>
</linearGradient>
<linearGradient id="paint51_linear_1_101" x1="77.1805" y1="75.1661" x2="118.102" y2="38.1403" gradientUnits="userSpaceOnUse">
<stop stop-color="#FFBFCD"/>
<stop offset="1" stop-color="#E16D90"/>
</linearGradient>
<linearGradient id="paint52_linear_1_101" x1="112.413" y1="43.0231" x2="113.045" y2="-19.4598" gradientUnits="userSpaceOnUse">
<stop stop-color="#2A3264"/>
<stop offset="1" stop-color="#4F61A5"/>
</linearGradient>
<linearGradient id="paint53_linear_1_101" x1="111.93" y1="42.068" x2="108.879" y2="21.3505" gradientUnits="userSpaceOnUse">
<stop stop-color="#FFBFCD"/>
<stop offset="1" stop-color="#E16D90"/>
</linearGradient>
<linearGradient id="paint54_linear_1_101" x1="5.86322" y1="40.7325" x2="32.6484" y2="90.661" gradientUnits="userSpaceOnUse">
<stop stop-color="#7BFFB9"/>
<stop offset="1" stop-color="#0E9DFB"/>
</linearGradient>
<linearGradient id="paint55_linear_1_101" x1="39.3774" y1="79.9626" x2="70.4472" y2="139.441" gradientUnits="userSpaceOnUse">
<stop stop-color="#7BFFB9"/>
<stop offset="1" stop-color="#0E9DFB"/>
</linearGradient>
<linearGradient id="paint56_linear_1_101" x1="75.5281" y1="87.9366" x2="32.7168" y2="139.611" gradientUnits="userSpaceOnUse">
<stop stop-color="#7BFFB9"/>
<stop offset="1" stop-color="#0E9DFB"/>
</linearGradient>
<linearGradient id="paint57_linear_1_101" x1="58.3555" y1="65.7119" x2="56.0417" y2="116.201" gradientUnits="userSpaceOnUse">
<stop stop-color="#7BFFB9"/>
<stop offset="1" stop-color="#0E9DFB"/>
</linearGradient>
<linearGradient id="paint58_linear_1_101" x1="47.2948" y1="123.816" x2="74.7823" y2="75.5702" gradientUnits="userSpaceOnUse">
<stop stop-color="#E0F0FF"/>
<stop offset="1" stop-color="#9CB1EC"/>
</linearGradient>
<linearGradient id="paint59_linear_1_101" x1="43.6642" y1="146.04" x2="77.7447" y2="65.4601" gradientUnits="userSpaceOnUse">
<stop stop-color="#E0F0FF"/>
<stop offset="1" stop-color="#9CB1EC"/>
</linearGradient>
<linearGradient id="paint60_linear_1_101" x1="53.1199" y1="131.52" x2="56.7676" y2="109.781" gradientUnits="userSpaceOnUse">
<stop stop-color="#E0F0FF"/>
<stop offset="1" stop-color="#9CB1EC"/>
</linearGradient>
<linearGradient id="paint61_linear_1_101" x1="21.942" y1="93.8184" x2="58.1297" y2="20.8823" gradientUnits="userSpaceOnUse">
<stop offset="0.01" stop-color="#FFB8A4"/>
<stop offset="0.99" stop-color="#F54F6E"/>
</linearGradient>
<linearGradient id="paint62_linear_1_101" x1="133.767" y1="111.552" x2="20.182" y2="147.766" gradientUnits="userSpaceOnUse">
<stop stop-color="#D4B6FF"/>
<stop offset="1" stop-color="#7D35F0"/>
</linearGradient>
<linearGradient id="paint63_linear_1_101" x1="84.2378" y1="130.012" x2="69.7851" y2="60.4432" gradientUnits="userSpaceOnUse">
<stop stop-color="#D4B6FF"/>
<stop offset="1" stop-color="#7D35F0"/>
</linearGradient>
<linearGradient id="paint64_linear_1_101" x1="153.531" y1="93.9298" x2="150.444" y2="15.3864" gradientUnits="userSpaceOnUse">
<stop offset="0.01" stop-color="#FFBAC0"/>
<stop offset="1" stop-color="#F54A8F"/>
</linearGradient>
</defs>
</svg>
