<svg width="28" height="32" viewBox="0 0 28 32" fill="none" xmlns="http://www.w3.org/2000/svg">
<path d="M19.1381 0C19.3325 0.0534369 19.5286 0.101029 19.7206 0.161981C21.1391 0.609515 22.0992 1.92457 22.1196 3.50096C22.1392 4.94876 22.1294 6.39657 22.1221 7.84438C22.1188 8.53071 21.6335 9.04086 21.0076 9.04754C20.3719 9.05506 19.8783 8.53154 19.8767 7.83185C19.8726 6.43581 19.8767 5.04061 19.8751 3.64457C19.8751 2.75952 19.4232 2.29779 18.5563 2.29779C14.2747 2.29695 9.99397 2.29779 5.7124 2.29779C5.62579 2.29779 5.53918 2.30697 5.37903 2.31616C5.52202 2.40633 5.60373 2.45977 5.68707 2.50903C7.7584 3.73307 9.82483 4.96546 11.9035 6.17614C13.1741 6.91591 13.7804 8.00552 13.7763 9.50343C13.7616 14.3887 13.7706 19.274 13.7706 24.1585C13.7706 24.2929 13.7706 24.4274 13.7706 24.5994C13.8948 24.606 14.0018 24.6161 14.1088 24.6161C15.587 24.6169 17.0651 24.6177 18.5432 24.6161C19.4159 24.6152 19.8743 24.1393 19.8751 23.2409C19.8759 22.0118 19.8702 20.7828 19.8783 19.5537C19.8824 18.9768 20.2665 18.5209 20.7943 18.4274C21.3303 18.3322 21.8394 18.6077 22.0281 19.1162C22.0878 19.2774 22.1196 19.4602 22.1213 19.6331C22.1286 20.8721 22.136 22.112 22.1229 23.3519C22.1025 25.3366 20.7191 26.8237 18.7777 26.8855C17.2399 26.9347 15.6997 26.8997 14.1603 26.9022C14.041 26.9022 13.9225 26.9022 13.7706 26.9022C13.7706 27.4315 13.7616 27.9183 13.7722 28.4051C13.8237 30.7121 11.9092 32.0722 10.2326 31.997C9.67285 31.972 9.14991 31.8108 8.66619 31.5253C6.34647 30.1585 4.02347 28.7967 1.70946 27.419C0.587595 26.751 0.0090935 25.7249 0.00745931 24.4032C-0.0023458 17.4455 -0.00234582 10.487 0.0066422 3.52934C0.00909348 1.75006 1.16283 0.383243 2.88363 0.0492622C2.92121 0.0425826 2.95553 0.016699 2.99148 0C8.37367 0 13.7559 0 19.1381 0Z" fill="#B7B7B7"/>
<path d="M24.1732 12.3078C23.7442 11.8703 23.3765 11.4988 23.0129 11.1247C22.5063 10.6029 22.472 9.90235 22.9279 9.4306C23.3888 8.95301 24.0743 8.97472 24.5866 9.49489C25.5982 10.5227 26.6081 11.5531 27.6123 12.5884C28.1345 13.1269 28.1279 13.7849 27.6001 14.3259C26.6008 15.3521 25.599 16.3749 24.5956 17.3969C24.0817 17.9204 23.4027 17.9521 22.9386 17.4829C22.4679 17.007 22.499 16.2998 23.0219 15.7662C23.3798 15.4013 23.7459 15.0448 24.1078 14.685L24.0735 14.5965C23.9575 14.5965 23.8415 14.5965 23.7254 14.5965C21.1573 14.5965 18.5892 14.5981 16.0211 14.5956C15.2661 14.5956 14.775 14.1331 14.7791 13.4417C14.7823 12.798 15.2579 12.3129 15.9148 12.3095C17.3317 12.302 18.7477 12.307 20.1645 12.3062C21.4686 12.3062 22.7719 12.3062 24.1732 12.3062V12.3078Z" fill="#B7B7B7"/>
</svg>
