<svg width="32" height="32" viewBox="0 0 32 32" fill="none" xmlns="http://www.w3.org/2000/svg">
<path d="M12.6267 0C13.0215 0.0834741 13.423 0.14608 13.8112 0.253761C16.752 1.06763 18.8138 3.89073 18.6652 6.88744C18.5058 10.1012 16.2353 12.7081 13.135 13.2356C9.54065 13.8475 6.04809 11.4151 5.44457 7.87912C4.81601 4.19457 7.17416 0.774639 10.7994 0.113525C10.9923 0.0784656 11.1843 0.0375633 11.3771 0H12.6267Z" fill="#B7B7B7"/>
<path d="M32.0004 29.6162C31.7091 30.4142 31.124 30.7022 30.2976 30.6705C29.3827 30.6355 28.4645 30.6513 27.5488 30.6663C26.8927 30.6772 26.4227 30.4209 26.0863 29.8466C25.2825 28.4735 24.4527 27.1145 23.633 25.7506C23.5804 25.6629 23.5245 25.5778 23.4419 25.4475C23.3684 25.5861 23.3091 25.6904 23.2557 25.7973C22.3584 27.592 21.4644 29.3892 20.562 31.1814C20.2214 31.8575 19.5444 32.1747 18.905 31.9018C18.6179 31.779 18.3416 31.537 18.1604 31.279C17.4543 30.2748 16.7856 29.2448 16.112 28.218C16.0035 28.0519 15.89 27.9826 15.6854 27.986C14.9258 27.9993 14.1654 27.9943 13.4049 27.9902C12.5994 27.986 12.0067 27.4225 12.0017 26.6663C11.9976 25.9083 12.5802 25.3307 13.3874 25.3223C14.46 25.3115 15.5327 25.3173 16.6053 25.3207C17.1354 25.3223 17.5402 25.551 17.8324 25.9976C18.2648 26.6587 18.708 27.3123 19.1655 27.996C19.264 27.8057 19.3516 27.6421 19.4351 27.476C20.3099 25.728 21.1897 23.9826 22.0537 22.2288C22.315 21.6987 22.6923 21.3481 23.2949 21.3289C23.8843 21.3097 24.2783 21.6261 24.5738 22.1244C25.6881 24.0034 26.8209 25.8716 27.9378 27.7489C28.0479 27.9334 28.1665 28.001 28.3793 27.996C29.0354 27.9818 29.6924 28.0169 30.3468 27.9843C31.1707 27.9434 31.7292 28.2631 32.0004 29.0528V29.6154V29.6162Z" fill="#B7B7B7"/>
<path d="M9.49369 27.9945C9.43526 27.9945 9.33175 27.9945 9.22824 27.9945C6.55206 27.9945 3.87589 27.9945 1.19971 27.9945C0.373315 27.9945 0.00185498 27.6222 0.00185498 26.7933C0.00185498 25.4293 -0.00231872 24.0654 0.00185498 22.7014C0.0135413 19.3708 2.32995 16.637 5.61716 16.0811C5.96441 16.0227 6.32168 16.0018 6.67394 16.0009C10.2149 15.9951 13.755 15.9893 17.296 16.0009C19.3762 16.0076 21.0857 16.8332 22.438 18.4075C22.519 18.5018 22.5908 18.6028 22.6868 18.7272C22.5808 18.7589 22.4981 18.7873 22.4138 18.8082C21.2293 19.1053 20.3295 19.774 19.7627 20.8641C19.4179 21.5286 19.0915 22.2022 18.756 22.8717C18.7101 22.9627 18.6591 23.0512 18.5982 23.163C17.7735 22.6822 16.8845 22.6497 15.9821 22.6655C15.1282 22.6805 14.2743 22.6655 13.4203 22.6697C11.2066 22.6789 9.52458 24.2064 9.35345 26.4135C9.31422 26.9202 9.4386 27.4394 9.49202 27.9953L9.49369 27.9945Z" fill="#B7B7B7"/>
</svg>
