<svg width="39" height="38" viewBox="0 0 39 38" fill="none" xmlns="http://www.w3.org/2000/svg">
<path d="M0 18.043C0.0955459 17.3074 0.172599 16.5687 0.290747 15.8362C0.628754 13.7342 1.34175 11.7586 2.36604 9.89697C3.7828 7.32031 5.70193 5.18645 8.09983 3.48615C10.2861 1.93584 12.7004 0.904355 15.3274 0.388613C20.3153 -0.589449 24.9683 0.281766 29.2822 2.96732C29.4168 3.05157 29.5524 3.13273 29.7055 3.22622C30.0785 2.68788 30.438 2.167 30.7997 1.6492C30.8778 1.53825 30.9579 1.42318 31.0555 1.33174C31.299 1.10367 31.5363 1.14065 31.6956 1.42832C31.7551 1.53516 31.7921 1.65639 31.825 1.77557C32.2668 3.35156 32.7075 4.92653 33.1441 6.50355C33.3691 7.31826 33.0414 7.759 32.1949 7.83092C30.6117 7.9655 29.0295 8.11345 27.4474 8.25522C27.4104 8.25831 27.3703 8.27269 27.3364 8.26447C27.1073 8.20694 26.7755 8.21002 26.683 8.0631C26.5957 7.92544 26.7118 7.59565 26.8278 7.40661C27.172 6.84977 27.5604 6.3217 27.9415 5.76795C26.8587 5.03749 25.7224 4.46421 24.5163 4.03066C22.2992 3.23341 20.0122 2.92623 17.6678 3.14403C14.7007 3.41937 11.9895 4.41181 9.59363 6.19739C6.41493 8.56652 4.36532 11.6867 3.46636 15.5516C3.03795 17.3968 2.96706 19.2646 3.22699 21.1375C3.81362 25.3836 5.7533 28.8829 9.09432 31.5787C11.1604 33.2451 13.5172 34.3012 16.1216 34.8129C17.0986 35.005 17.6462 35.7632 17.4685 36.6211C17.2897 37.4851 16.5079 38.0152 15.6315 37.8385C9.60698 36.618 5.10914 33.3026 2.17701 27.912C0.926692 25.6096 0.254789 23.11 0.0647246 20.4882C0.057533 20.3926 0.0226023 20.2981 0 20.2036C0 19.4834 0 18.7632 0 18.042V18.043Z" fill="white"/>
<path d="M19.3766 13.2179C19.3766 14.9563 19.3828 16.6956 19.3705 18.4339C19.3684 18.6939 19.4516 18.8233 19.6828 18.9415C22.8491 20.5678 26.0094 22.2054 29.1706 23.842C29.8538 24.1954 30.1189 24.6845 29.974 25.305C29.8086 26.0129 29.0843 26.4269 28.3949 26.2009C28.2429 26.1505 28.097 26.0776 27.9542 26.0036C24.384 24.1595 20.816 22.3102 17.2417 20.4743C16.9839 20.3418 16.8955 20.1969 16.8955 19.9072C16.9058 15.9703 16.9017 12.0334 16.9037 8.09648C16.9037 7.23349 17.3938 6.68692 18.1458 6.69103C18.8557 6.69514 19.3725 7.23554 19.3746 8.00094C19.3807 9.73925 19.3766 11.4786 19.3766 13.2169V13.2179Z" fill="white"/>
<path d="M30.9155 30.4501C30.9155 30.4377 30.9155 30.4254 30.9155 30.4131C30.9309 29.4504 32.1956 28.1025 33.0915 28.0933C34.2689 28.082 35.0343 29.3477 34.4271 30.3545C34.1548 30.8055 33.8086 31.2288 33.4285 31.5956C32.9703 32.0374 32.3898 32.1052 31.8042 31.837C31.2196 31.5689 30.932 31.0922 30.9155 30.4511V30.4501Z" fill="white"/>
<path d="M23.0899 34.579C24.0372 34.5841 24.6639 35.0947 24.8026 35.7944C24.9495 36.533 24.556 37.2851 23.8399 37.5203C23.3601 37.6775 22.8578 37.7885 22.3564 37.8481C21.6177 37.9364 20.9479 37.4104 20.7712 36.6717C20.6016 35.9608 20.9602 35.1861 21.6496 34.9396C22.1807 34.7495 22.7489 34.6622 23.0899 34.58V34.579Z" fill="white"/>
<path d="M37.3456 24.5971C37.1915 24.9792 36.9994 25.6522 36.6614 26.2419C36.3203 26.8367 35.5025 26.996 34.8758 26.7196C34.2193 26.4299 33.8228 25.7796 33.9748 25.1005C34.093 24.5734 34.2707 24.0495 34.5018 23.5615C34.7967 22.9378 35.5323 22.6553 36.2104 22.8248C36.873 22.9902 37.3436 23.6036 37.3446 24.5971H37.3456Z" fill="white"/>
<path d="M33.8389 12.7011C33.8328 11.8812 34.291 11.2833 34.9701 11.0943C35.644 10.9073 36.3683 11.1775 36.6786 11.8083C36.9169 12.2932 37.106 12.813 37.2375 13.338C37.3967 13.973 36.9909 14.6675 36.3786 14.9531C35.7601 15.2418 34.9629 15.0887 34.5622 14.538C34.141 13.9596 33.9756 13.2661 33.8389 12.7V12.7011Z" fill="white"/>
<path d="M35.0853 18.9136C35.0853 18.7523 35.0812 18.591 35.0853 18.4307C35.112 17.5482 35.7172 16.903 36.5524 16.8629C37.364 16.8239 38.0668 17.4516 38.1366 18.3156C38.1705 18.7338 38.1705 19.1591 38.1407 19.5783C38.0822 20.393 37.3795 21.0259 36.6038 20.9981C35.7685 20.9693 35.1387 20.3488 35.0977 19.5074C35.0884 19.3101 35.0966 19.1108 35.0966 18.9125H35.0853V18.9136Z" fill="white"/>
<path d="M28.0469 35.7817C27.2198 35.794 26.6239 35.382 26.4103 34.7759C26.1945 34.1636 26.3784 33.4619 26.9065 33.0766C27.2948 32.7931 27.7099 32.5372 28.1373 32.3174C28.7064 32.0246 29.4318 32.1869 29.8756 32.6574C30.3215 33.1311 30.4561 33.8656 30.1057 34.4091C29.589 35.2094 28.764 35.5649 28.0479 35.7817H28.0469Z" fill="white"/>
</svg>
