<svg width="32" height="30" viewBox="0 0 32 30" fill="none" xmlns="http://www.w3.org/2000/svg">
<path d="M32 11.6849V12.1851C31.9828 12.2094 31.9562 12.2305 31.9483 12.2579C31.7292 13.018 31.2751 13.3687 30.4994 13.3703C29.8849 13.3718 29.2704 13.3703 28.6559 13.3703C28.4422 13.3703 28.2285 13.3703 27.9999 13.3703V13.7883C27.9999 18.4436 27.9999 23.0989 27.9999 27.7542C27.9999 27.8896 28.003 28.0258 27.9921 28.1604C27.9381 28.829 27.5107 29.2759 26.8453 29.355C26.7012 29.3722 26.5541 29.3691 26.4085 29.3691C19.4729 29.3691 12.5365 29.3691 5.60095 29.3691C5.46553 29.3691 5.32932 29.3714 5.19546 29.3589C4.50112 29.2924 4.05493 28.8337 4.00718 28.1377C3.99857 28.0133 4.00091 27.888 4.00091 27.7628C4.00091 23.0973 4.00091 18.4318 4.00091 13.7656V13.3695C3.15001 13.3695 2.33042 13.3703 1.51084 13.3695C0.788315 13.3687 0.277148 13.0172 0.0783176 12.3879C-0.11973 11.7601 0.0509197 11.3186 0.669329 10.87C5.44909 7.39284 10.2312 3.91566 15.0125 0.437687C15.8125 -0.143931 16.1836 -0.145496 16.9758 0.430642C21.7579 3.90783 26.5384 7.38736 31.3237 10.8598C31.6274 11.0806 31.8732 11.3287 31.9992 11.6849H32ZM8.00022 18.7395C8.04406 23.1482 11.6559 26.7271 16.0294 26.6935C20.4381 26.6598 24.0241 23.0527 23.9982 18.6792C23.9724 14.2838 20.341 10.6673 15.9848 10.6994C11.5682 10.7315 7.95717 14.3676 8.00022 18.7395Z" fill="#B7B7B7"/>
</svg>
