<svg width="24" height="27" viewBox="0 0 24 27" fill="none" xmlns="http://www.w3.org/2000/svg">
<path d="M11.2002 26.6398C10.7804 26.5921 10.3598 26.5495 9.94063 26.4953C8.37247 26.2937 6.88814 25.816 5.49414 25.0774C3.27414 23.9017 1.5058 22.2309 0.162386 20.1041C-0.0334539 19.7934 -0.0544109 19.5159 0.1118 19.1813C1.32947 16.7308 3.25246 15.1619 5.90316 14.4949C6.11273 14.4421 6.32736 14.4125 6.53837 14.3669C6.95607 14.2773 7.31523 14.3944 7.65921 14.6372C9.02864 15.6056 10.5599 16.0385 12.23 15.9647C13.499 15.9091 14.7203 15.6005 15.7421 14.849C16.5067 14.2867 17.2431 14.3113 18.0647 14.5404C20.3866 15.1886 22.1383 16.5739 23.3697 18.6371C23.8944 19.5166 23.9117 19.531 23.3481 20.3816C21.9613 22.4751 20.1604 24.112 17.9028 25.2256C16.2537 26.0386 14.5107 26.5011 12.6744 26.6029C12.6152 26.6066 12.5574 26.6261 12.4981 26.6384H11.2002V26.6398Z" fill="#E6EBED"/>
<path d="M12.3949 0C13.064 0.162597 13.7672 0.242812 14.3966 0.502245C16.7821 1.48867 18.2354 3.27435 18.6798 5.83327C19.1734 8.67403 17.7808 11.5697 15.2132 12.9507C12.7135 14.2948 10.2233 14.1575 7.89199 12.5316C6.02031 11.2264 5.03461 9.36128 4.99197 7.07769C4.94428 4.54044 6.0391 2.54736 8.13408 1.12373C9.05908 0.495019 10.0954 0.150312 11.2083 0.0375781C11.2588 0.0325195 11.3073 0.0130078 11.3571 0H12.3956L12.3949 0Z" fill="#E6EBED"/>
</svg>
