<svg width="33" height="26" viewBox="0 0 33 26" fill="none" xmlns="http://www.w3.org/2000/svg">
<path d="M14.403 25.999C10.2175 25.999 6.03107 26.005 1.84562 25.9878C1.48598 25.9868 1.09228 25.9004 0.774713 25.7347C0.151603 25.4086 -0.11988 24.6606 0.049421 23.9727C0.215717 23.2969 0.816788 22.7919 1.50802 22.7492C1.59517 22.7441 1.68333 22.7462 1.77049 22.7462C10.1915 22.7462 18.6135 22.7462 27.0345 22.7462C27.9261 22.7462 28.5732 23.2106 28.7525 23.9727C28.9739 24.9147 28.3919 25.8079 27.4462 25.9634C27.2629 25.9939 27.0735 25.9969 26.8862 25.9969C22.7258 25.999 18.5644 25.9979 14.404 25.9979L14.403 25.999Z" fill="#B7B7B7"/>
<path d="M12.8105 21.9282C9.8252 21.9282 6.84089 21.9282 3.85557 21.9282C3.35768 21.9282 3.32463 21.8988 3.23246 21.3927C3.08019 20.5462 3.62717 19.716 4.45965 19.5453C4.62995 19.5108 4.80626 19.4955 4.97957 19.4955C10.1999 19.4935 15.4202 19.4884 20.6415 19.5057C20.9861 19.5067 21.3607 19.6175 21.6683 19.7811C22.1251 20.0239 22.3545 20.468 22.3866 20.9974C22.4337 21.7646 22.2804 21.9293 21.5401 21.9293C18.6299 21.9293 15.7197 21.9293 12.8105 21.9293V21.9282Z" fill="#B7B7B7"/>
<path d="M21.9346 10.2562C22.7 9.49606 23.4403 8.76136 24.2016 8.00533C24.2587 8.05613 24.3439 8.12422 24.42 8.20145C26.7522 10.5661 29.0813 12.9348 31.4175 15.2954C31.9354 15.8187 32.1438 16.4152 31.9003 17.1245C31.5417 18.1712 30.2574 18.5299 29.4049 17.8358C29.3177 17.7647 29.2366 17.6844 29.1575 17.6041C26.8163 15.2304 24.4761 12.8555 22.136 10.4807C22.0748 10.4187 22.0187 10.3527 21.9336 10.2582L21.9346 10.2562Z" fill="#B7B7B7"/>
<path d="M20.4586 10.4313C19.0111 8.95781 17.5234 7.44472 16.0508 5.94586C17.3411 4.64211 18.6484 3.32107 19.9377 2.01833C21.3993 3.50195 22.89 5.01301 24.3435 6.4885C23.0683 7.7821 21.766 9.10414 20.4586 10.4303V10.4313Z" fill="#B7B7B7"/>
<path d="M15.3648 6.59709C16.8825 8.10713 18.3852 9.60396 19.8918 11.1038C19.5623 11.4443 19.2657 11.805 18.9151 12.0997C18.307 12.6108 17.4365 12.5743 16.8634 12.0133C16.074 11.24 15.2997 10.4494 14.5413 9.64461C13.9463 9.01255 13.9483 8.08986 14.5253 7.44255C14.7998 7.13465 15.1073 6.8552 15.3648 6.59709Z" fill="#B7B7B7"/>
<path d="M20.544 1.26172C20.7984 1.01174 21.0919 0.700786 21.4095 0.417273C22.0306 -0.137561 22.9252 -0.145691 23.5233 0.432515C24.3367 1.21904 25.1321 2.02487 25.9085 2.85C26.5046 3.4841 26.4835 4.40374 25.8955 5.05206C25.625 5.3498 25.3375 5.6323 25.057 5.92191C23.5573 4.37427 22.0737 2.84187 20.543 1.26172H20.544Z" fill="#B7B7B7"/>
<path d="M13.2088 14.6355C13.2088 15.1416 13.2108 15.6476 13.2088 16.1527C13.2078 16.4413 13.1036 16.6658 12.7811 16.6496C12.4835 16.6353 12.4004 16.4199 12.4024 16.1445C12.4064 15.1324 12.4054 14.1213 12.4024 13.1092C12.4024 12.8359 12.4785 12.6245 12.7881 12.6164C13.1197 12.6072 13.2078 12.8328 13.2088 13.1173C13.2108 13.6234 13.2088 14.1294 13.2088 14.6345V14.6355Z" fill="#B7B7B7"/>
<path d="M9.56584 17.7933C9.56184 18.1896 9.27032 18.3878 8.9828 18.2252C8.04814 17.6978 7.1255 17.149 6.20285 16.5983C5.98647 16.4692 5.92636 16.2253 6.08765 16.0506C6.19183 15.9378 6.47434 15.8544 6.59255 15.9195C7.53322 16.4347 8.45687 16.9844 9.37751 17.5372C9.47869 17.5982 9.53078 17.7445 9.56685 17.7943L9.56584 17.7933Z" fill="#B7B7B7"/>
<path d="M15.9638 18.3217C15.8566 18.2252 15.6763 18.1408 15.6493 18.0209C15.6182 17.8807 15.6733 17.6551 15.7755 17.5637C15.9779 17.3828 16.2373 17.269 16.4747 17.1287C17.1329 16.7426 17.7931 16.3595 18.4493 15.9693C18.6887 15.827 18.9261 15.7508 19.0984 16.0384C19.2767 16.3371 19.1134 16.5282 18.852 16.6796C18.0075 17.1684 17.167 17.6653 16.3235 18.1561C16.2283 18.212 16.1231 18.2496 15.9638 18.3217Z" fill="#B7B7B7"/>
</svg>
