<svg width="37" height="37" viewBox="0 0 37 37" fill="none" xmlns="http://www.w3.org/2000/svg">
<path d="M27.4613 0H28.0396C28.6951 0.281878 28.9644 0.778061 28.9132 1.48758C28.8804 1.94805 28.9074 2.41334 28.9074 2.89022C30.0668 2.89022 31.1722 2.88249 32.2765 2.89215C34.4042 2.90952 36.2586 4.33822 36.8272 6.38956C36.8909 6.61834 36.943 6.85099 37 7.0817V32.806C36.9759 32.8842 36.943 32.9614 36.9295 33.0415C36.5472 35.2869 34.5847 36.9888 32.2997 36.9917C23.1018 37.0023 13.9039 37.0033 4.70602 36.9917C2.13045 36.9878 0.011502 34.8631 0.00764056 32.2905C-0.00394368 24.0562 -0.00104762 15.8209 0.00764056 7.58657C0.00957127 5.61246 1.30508 3.84397 3.16145 3.17016C4.02351 2.85643 4.91164 2.89118 5.80073 2.89118C6.55564 2.89118 7.31054 2.89118 8.09634 2.89118C8.09634 2.39886 8.1224 1.94322 8.09055 1.49048C8.04035 0.781922 8.30196 0.279947 8.96323 0.000965336H9.54147C10.1979 0.283809 10.4672 0.780957 10.4151 1.49241C10.3813 1.95384 10.4084 2.41913 10.4084 2.87284H26.5944C26.5944 2.39982 26.6205 1.94322 26.5887 1.49144C26.5385 0.782887 26.8001 0.281878 27.4613 0.00193067V0ZM34.687 12.7434H2.31484V13.199C2.31484 19.4486 2.31484 25.6992 2.31484 31.9488C2.31484 33.6883 3.30819 34.6836 5.04293 34.6836C14.0149 34.6836 22.9869 34.6836 31.958 34.6836C33.6927 34.6836 34.687 33.6873 34.687 31.9497C34.687 25.6876 34.687 19.4255 34.687 13.1633V12.7424V12.7434ZM28.9065 5.21281C28.9065 5.59123 28.9094 5.92813 28.9065 6.26406C28.8997 6.99579 28.4141 7.51707 27.7452 7.51321C27.0771 7.51031 26.6002 6.98807 26.5954 6.25151C26.5935 5.90786 26.5954 5.5642 26.5954 5.23019H10.4084C10.4084 5.57095 10.4084 5.88276 10.4084 6.19553C10.4055 6.98903 9.9363 7.519 9.24222 7.51321C8.56261 7.50742 8.09924 6.98131 8.09634 6.21097C8.09537 5.87986 8.09634 5.54778 8.09634 5.20219C6.95915 5.20219 5.87699 5.19544 4.79483 5.20413C3.54566 5.21378 2.49536 6.04686 2.36697 7.28539C2.26174 8.30478 2.34573 9.34445 2.34573 10.3841H34.688C34.688 9.49987 34.688 8.63493 34.688 7.77095C34.688 7.6387 34.6899 7.50549 34.6725 7.3742C34.5258 6.22449 33.6251 5.28618 32.4812 5.22633C31.3073 5.16455 30.1276 5.21281 28.9074 5.21281H28.9065Z" fill="white"/>
</svg>
