<svg width="38" height="37" viewBox="0 0 38 37" fill="none" xmlns="http://www.w3.org/2000/svg">
<path d="M14.6194 0C15.2817 0.165104 15.9672 0.268415 16.6035 0.505933C19.9326 1.74566 21.883 4.95312 21.5566 8.58831C21.2621 11.8691 18.5915 14.7039 15.2267 15.3054C10.2987 16.187 5.7945 12.0903 6.21643 7.1101C6.52926 3.41215 9.25976 0.561933 12.9683 0.0608278C13.0378 0.0511726 13.1054 0.0212415 13.174 0H14.6194ZM13.9029 13.0954C16.8845 13.0915 19.3089 10.6622 19.2944 7.6923C19.2799 4.73009 16.8642 2.31918 13.9078 2.31532C10.933 2.31146 8.50182 4.73491 8.49893 7.70679C8.49603 10.6796 10.9233 13.0992 13.9039 13.0954H13.9029Z" fill="white"/>
<path d="M37.0279 34.6183C36.7122 35.2951 36.1676 35.4988 35.4454 35.4776C34.2414 35.4409 33.0365 35.4592 31.8315 35.4718C31.2261 35.4785 30.81 35.2352 30.5203 34.6965C29.4602 32.7258 28.3817 30.7658 27.309 28.801C27.2462 28.6861 27.1786 28.5741 27.0908 28.4216C27.0174 28.5712 26.9595 28.6832 26.9064 28.7981C25.7767 31.2438 24.6422 33.6865 23.5203 36.1361C23.2982 36.6217 22.9873 36.9732 22.4264 36.9983C21.8664 37.0224 21.5236 36.7019 21.261 36.2355C20.447 34.7882 19.6128 33.3525 18.7999 31.9052C18.6714 31.6763 18.5256 31.5914 18.2621 31.5952C17.1778 31.6097 16.0935 31.6087 15.0102 31.5952C14.4521 31.5875 13.9906 31.1665 13.9037 30.6355C13.8178 30.1122 14.1132 29.5734 14.6143 29.3871C14.79 29.3214 14.9889 29.2925 15.1782 29.2905C16.5029 29.2828 17.8285 29.2896 19.1532 29.2847C19.6968 29.2828 20.0937 29.5049 20.363 29.9847C20.9752 31.0758 21.5999 32.1581 22.2564 33.3081C22.3356 33.1507 22.3935 33.0435 22.4447 32.9334C23.5946 30.4443 24.7417 27.9542 25.8926 25.4651C26.2122 24.7738 26.7924 24.4832 27.4065 24.7777C27.6865 24.9119 27.952 25.1822 28.1055 25.4574C29.4553 27.8867 30.7839 30.3275 32.1009 32.7741C32.2602 33.0705 32.4388 33.1719 32.769 33.1642C33.7085 33.142 34.6489 33.1854 35.5874 33.1468C36.298 33.1178 36.7643 33.3921 37.025 34.0419V34.6202L37.0279 34.6183Z" fill="white"/>
<path d="M2.33281 30.0634C2.66592 30.0634 2.95268 30.0634 3.23944 30.0634C5.48041 30.0634 7.72042 30.0605 9.9614 30.0653C10.8062 30.0673 11.3585 30.7518 11.1528 31.5242C11.0235 32.0118 10.5919 32.372 10.0666 32.3739C7.0909 32.3807 4.11613 32.3826 1.1404 32.3729C0.510876 32.371 0.023288 31.868 0.0203914 31.2327C0.0126673 29.3055 -0.0278846 27.3773 0.0329432 25.4521C0.149771 21.7059 3.36882 18.5438 7.11311 18.5129C11.6298 18.4762 16.1475 18.4791 20.6652 18.5158C22.6145 18.5322 24.2897 19.3046 25.6646 20.695C26.1599 21.1951 26.1696 21.9048 25.7061 22.375C25.2514 22.8355 24.5272 22.8239 24.0271 22.3267C22.9901 21.2955 21.7408 20.8128 20.2838 20.8147C16.0191 20.8205 11.7553 20.8137 7.49063 20.8176C4.51199 20.8205 2.33378 23.0006 2.33088 25.9696C2.32992 27.3175 2.33088 28.6644 2.33088 30.0634H2.33281Z" fill="white"/>
</svg>
