<svg width="8" height="12" viewBox="0 0 8 12" fill="none" xmlns="http://www.w3.org/2000/svg">
<path d="M5.18797 5.93147C5.10541 5.88132 5.02227 5.84736 4.96223 5.79129C3.42713 4.36146 1.89549 2.92947 0.361547 1.49857C0.101175 1.25541 -0.00447548 0.971278 0.0942467 0.635387C0.19066 0.308662 0.423321 0.102708 0.773756 0.0250702C1.12708 -0.0531063 1.42209 0.0558014 1.67496 0.292489C2.54383 1.10768 3.41558 1.91965 4.28676 2.73268C5.18797 3.5743 6.08974 4.41591 6.99094 5.25807C7.51342 5.74654 7.51573 6.20859 6.99845 6.69167C5.22145 8.35171 3.4433 10.0107 1.66745 11.6718C1.48444 11.8433 1.28642 11.977 1.01796 11.9969C0.625384 12.0255 0.280722 11.8546 0.105216 11.5397C-0.0714448 11.2227 -0.0252595 10.834 0.240886 10.5633C0.460269 10.3406 0.695817 10.132 0.925014 9.91848C2.27537 8.65903 3.62631 7.40011 4.97667 6.14119C5.03151 6.08998 5.08289 6.03606 5.18797 5.93147Z" fill="#194AF5"/>
</svg>
