<svg width="28" height="28" viewBox="0 0 28 28" fill="none" xmlns="http://www.w3.org/2000/svg">
<path d="M20.1349 18.7701C20.2381 18.8231 20.3353 18.8869 20.4249 18.9606C22.8193 21.3495 25.2116 23.7393 27.602 26.13C27.9258 26.4529 28.0912 26.8131 27.9483 27.2685C27.8999 27.4294 27.8127 27.576 27.6944 27.6955C27.5761 27.8149 27.4303 27.9035 27.2698 27.9535C27.1093 28.0035 26.939 28.0134 26.7738 27.9822C26.6086 27.9511 26.4535 27.8799 26.3222 27.7749C26.2306 27.6984 26.1439 27.6163 26.0625 27.529C23.6958 25.1626 21.3292 22.7939 18.9625 20.4229C18.8877 20.3343 18.8205 20.2396 18.7617 20.1398C17.1046 21.5347 15.0847 22.4293 12.9381 22.719C10.7914 23.0086 8.60667 22.6814 6.6391 21.7756C4.67153 20.8697 3.00243 19.4227 1.82684 17.6035C0.651263 15.7843 0.0177604 13.6682 0.000367999 11.5024C-0.0170244 9.33653 0.582412 7.21048 1.72863 5.37267C2.87484 3.53485 4.52049 2.06118 6.47326 1.12386C8.42603 0.186547 10.6053 -0.175695 12.7563 0.0794688C14.9073 0.334633 16.9413 1.19666 18.6205 2.56482C23.3688 6.44863 24.3576 13.6483 20.1349 18.7701ZM2.07332 11.3965C2.07332 16.5425 6.26402 20.7397 11.4089 20.7389C16.5537 20.738 20.7263 16.5616 20.7427 11.4259C20.7466 8.95042 19.7669 6.57478 18.0191 4.8216C16.2712 3.06842 13.8985 2.0813 11.4227 2.0774C10.1969 2.07546 8.98266 2.31498 7.84939 2.78226C6.71611 3.24954 5.68598 3.93543 4.8178 4.80079C3.06445 6.54845 2.07723 8.92098 2.07332 11.3965Z" fill="#7D818B"/>
</svg>
