<svg width="38" height="34" viewBox="0 0 38 34" fill="none" xmlns="http://www.w3.org/2000/svg">
<path d="M30.4985 3.85321C30.4085 3.85321 30.2811 3.85321 30.1526 3.85321C28.8833 3.85321 27.6141 3.85964 26.3449 3.85107C25.2224 3.84357 24.3687 2.99206 24.3773 1.90813C24.3859 0.844547 25.2395 0.00803311 26.3438 0.00481986C29.3096 -0.00160662 32.2765 -0.00160662 35.2423 0.00481986C36.3691 0.00696203 37.1992 0.828481 37.2024 1.95097C37.211 4.93072 37.211 7.91154 37.2013 10.8913C37.1981 11.9924 36.3423 12.8353 35.2745 12.8332C34.2077 12.831 33.3658 11.9806 33.3594 10.8795C33.3508 9.61027 33.3572 8.33997 33.3572 7.07074C33.3572 6.94114 33.3572 6.81047 33.3572 6.60054C33.1912 6.75584 33.0766 6.8576 32.9684 6.96578C29.1125 10.8206 25.2588 14.6776 21.4029 18.5313C20.6028 19.3303 19.6613 19.4792 18.8366 18.9297C18.6492 18.8055 18.4853 18.6427 18.3246 18.4831C16.9515 17.1153 15.5826 15.7444 14.2117 14.3755C14.1935 14.3573 14.1688 14.3445 14.0992 14.2941C13.9696 14.4216 13.8304 14.5555 13.6933 14.6926C10.2722 18.1136 6.85012 21.5314 3.43445 24.9567C2.87427 25.518 2.24233 25.8018 1.44652 25.5972C0.0862477 25.2491 -0.452506 23.62 0.433278 22.5329C0.517893 22.43 0.611077 22.3336 0.705332 22.2383C4.67262 18.2689 8.64311 14.3016 12.6072 10.3279C13.1931 9.73987 13.8678 9.44854 14.6701 9.72595C15.0203 9.84698 15.3545 10.0912 15.6244 10.3536C16.9161 11.6132 18.1832 12.8963 19.4557 14.1763C19.5863 14.308 19.6913 14.4655 19.7781 14.5737C23.3876 10.962 26.9415 7.40706 30.4975 3.85L30.4985 3.85321Z" fill="white"/>
<path d="M18.5804 33.369C13.0622 33.369 7.5429 33.3701 2.02469 33.3679C0.847576 33.3679 -0.0199998 32.5175 0.000350688 31.4014C0.0185591 30.4181 0.805804 29.5902 1.78906 29.5238C1.89509 29.5163 2.00327 29.5195 2.10931 29.5195C13.1061 29.5195 24.1029 29.5195 35.1007 29.5195C36.2864 29.5195 37.1444 30.2586 37.2033 31.3264C37.2633 32.4136 36.4289 33.3347 35.3364 33.3647C34.7227 33.3818 34.1068 33.369 33.492 33.369C28.5211 33.369 23.5502 33.369 18.5793 33.369H18.5804Z" fill="white"/>
</svg>
